<svg width="570" height="735" viewBox="0 0 570 735" fill="none" xmlns="http://www.w3.org/2000/svg">
<g opacity="0.5">
<path fill-rule="evenodd" clip-rule="evenodd" d="M211.957 28.6369L251.026 67.7065L324.457 140.847V222.928L298.37 248.456L257.609 289.217V792.495C271.457 794.454 285.61 795.467 300 795.467C465.685 795.467 600 661.152 600 495.467C600 401.48 556.78 317.588 489.13 262.582V318.168C532.611 364.531 559.239 426.889 559.239 495.467C559.239 582.744 516.109 659.948 450 706.928V97.1205L409.239 138.146L365.217 182.168V125.022L171.196 -69V720.494C93.2596 675.787 40.7609 591.758 40.7609 495.467C40.7609 416.355 76.1981 345.519 132.065 297.969V246.839C52.3781 300.768 0 392.001 0 495.467C0 630.515 89.2341 744.721 211.957 782.34V28.6369ZM300 754.706C299.456 754.706 298.913 754.704 298.37 754.701V306.66L409.239 195.79V730.635C376.042 746.082 339.028 754.706 300 754.706Z" fill="#EDEEED"/>
<path fill-rule="evenodd" clip-rule="evenodd" d="M451.961 734.494L542.292 734.447L599.992 734.502L538.967 673.477C513.975 698.647 484.55 719.409 451.961 734.494Z" fill="#EDEEED"/>
</g>
</svg>
