<svg width="30" height="30" viewBox="0 0 30 30" fill="none" xmlns="http://www.w3.org/2000/svg">
<path d="M4.75179 25.7732V3.87589C4.75179 3.3924 5.14331 3 5.62768 3H16.1384C16.6219 3 17.0143 3.3924 17.0143 3.87589V8.25536H24.8973C25.3808 8.25536 25.7732 8.64776 25.7732 9.13125V25.7732H26.6491C27.1317 25.7732 27.525 26.1656 27.525 26.6491C27.525 27.1326 27.1317 27.525 26.6491 27.525H3.87589C3.3924 27.525 3 27.1326 3 26.6491C3 26.1656 3.3924 25.7732 3.87589 25.7732H4.75179ZM15.2625 25.7732V4.75179H6.50357V25.7732H8.25273V21.3938C8.25273 20.9103 8.64513 20.5179 9.12862 20.5179H12.6322C13.1157 20.5179 13.5081 20.9103 13.5081 21.3938V25.7732H15.2625ZM10.0045 22.2696V25.7732H11.7563V22.2696H10.0045ZM17.0143 10.0071V25.7732H24.0214V10.0071H17.0143ZM19.6393 24.0214H21.3911C21.8746 24.0214 22.267 23.629 22.267 23.1455C22.267 22.662 21.8746 22.2696 21.3911 22.2696H19.6393C19.1558 22.2696 18.7634 22.662 18.7634 23.1455C18.7634 23.629 19.1558 24.0214 19.6393 24.0214ZM19.6393 20.5179H21.3911C21.8746 20.5179 22.267 20.1255 22.267 19.642C22.267 19.1585 21.8746 18.7661 21.3911 18.7661H19.6393C19.1558 18.7661 18.7634 19.1585 18.7634 19.642C18.7634 20.1255 19.1558 20.5179 19.6393 20.5179ZM9.12862 18.7661H12.6322C13.1157 18.7661 13.5081 18.3737 13.5081 17.8902C13.5081 17.4067 13.1157 17.0143 12.6322 17.0143H9.12862C8.64513 17.0143 8.25273 17.4067 8.25273 17.8902C8.25273 18.3737 8.64513 18.7661 9.12862 18.7661ZM19.6393 17.0143H21.3911C21.8746 17.0143 22.267 16.6219 22.267 16.1384C22.267 15.6549 21.8746 15.2625 21.3911 15.2625H19.6393C19.1558 15.2625 18.7634 15.6549 18.7634 16.1384C18.7634 16.6219 19.1558 17.0143 19.6393 17.0143ZM9.12862 15.2625H12.6322C13.1157 15.2625 13.5081 14.8701 13.5081 14.3866C13.5081 13.9031 13.1157 13.5107 12.6322 13.5107H9.12862C8.64513 13.5107 8.25273 13.9031 8.25273 14.3866C8.25273 14.8701 8.64513 15.2625 9.12862 15.2625ZM19.6393 13.5107H21.3911C21.8746 13.5107 22.267 13.1183 22.267 12.6348C22.267 12.1513 21.8746 11.7589 21.3911 11.7589H19.6393C19.1558 11.7589 18.7634 12.1513 18.7634 12.6348C18.7634 13.1183 19.1558 13.5107 19.6393 13.5107ZM9.12862 11.7589H12.6322C13.1157 11.7589 13.5081 11.3665 13.5081 10.883C13.5081 10.3995 13.1157 10.0071 12.6322 10.0071H9.12862C8.64513 10.0071 8.25273 10.3995 8.25273 10.883C8.25273 11.3665 8.64513 11.7589 9.12862 11.7589ZM12.6322 6.50357C13.1157 6.50357 13.5081 6.89597 13.5081 7.37946C13.5081 7.86296 13.1157 8.25536 12.6322 8.25536H9.12862H9.09796L9.07081 8.25359L9.04279 8.25097L9.01564 8.24834L8.9876 8.24397L8.96133 8.23959L8.92892 8.23258L8.89914 8.2247L8.86849 8.21593L8.83783 8.20631L8.81243 8.19667L8.7879 8.18615L8.76338 8.17565L8.73973 8.16426L8.71608 8.15199L8.69243 8.13974L8.66965 8.12572L8.64776 8.11171L8.62586 8.09682L8.60484 8.08105L8.58382 8.06528L8.55929 8.04514L8.53564 8.02412L8.51287 8.00222L8.49098 7.98032L8.4682 7.95492L8.44806 7.93127L8.42878 7.90587L8.41039 7.88047L8.3955 7.85944L8.38149 7.83667L8.36835 7.8139L8.35521 7.79112L8.34295 7.76748L8.32981 7.73857L8.31667 7.70879L8.30528 7.67813L8.29565 7.65011L8.28602 7.61945L8.27901 7.59317L8.27288 7.5669L8.26762 7.53975L8.26324 7.51259L8.25887 7.48544L8.25623 7.45829L8.25448 7.43027L8.25273 7.40223V7.37158L8.25361 7.34355L8.25536 7.31639L8.25711 7.28924L8.25887 7.27348C8.31142 6.83991 8.68104 6.50357 9.12862 6.50357H12.6322Z" fill="white"/>
</svg>
