<svg width="25" height="25" viewBox="0 0 25 25" fill="none" xmlns="http://www.w3.org/2000/svg">
<g clip-path="url(#clip0_204_701)">
<path d="M13.2324 20.9961H14.6973V25H13.2324V20.9961Z" fill="white"/>
<path d="M10.3027 20.9961H11.7676V25H10.3027V20.9961Z" fill="white"/>
<path d="M17.4316 0H7.56836C7.16387 0 6.83594 0.32793 6.83594 0.732422V25H8.83789V20.2637C8.83789 19.8592 9.16582 19.5312 9.57031 19.5312H12.5H15.4297C15.8342 19.5312 16.1621 19.8592 16.1621 20.2637V25H18.1641V0.732422C18.1641 0.32793 17.8361 0 17.4316 0ZM10.3027 17.334C10.3027 17.7385 9.9748 18.0664 9.57031 18.0664C9.16582 18.0664 8.83789 17.7385 8.83789 17.334V15.8691C8.83789 15.4646 9.16582 15.1367 9.57031 15.1367C9.9748 15.1367 10.3027 15.4646 10.3027 15.8691V17.334ZM10.3027 12.9395C10.3027 13.3439 9.9748 13.6719 9.57031 13.6719C9.16582 13.6719 8.83789 13.3439 8.83789 12.9395V11.4746C8.83789 11.0701 9.16582 10.7422 9.57031 10.7422C9.9748 10.7422 10.3027 11.0701 10.3027 11.4746V12.9395ZM13.2324 17.334C13.2324 17.7385 12.9045 18.0664 12.5 18.0664C12.0955 18.0664 11.7676 17.7385 11.7676 17.334V15.8691C11.7676 15.4646 12.0955 15.1367 12.5 15.1367C12.9045 15.1367 13.2324 15.4646 13.2324 15.8691V17.334ZM13.2324 12.9395C13.2324 13.3439 12.9045 13.6719 12.5 13.6719C12.0955 13.6719 11.7676 13.3439 11.7676 12.9395V11.4746C11.7676 11.0701 12.0955 10.7422 12.5 10.7422C12.9045 10.7422 13.2324 11.0701 13.2324 11.4746V12.9395ZM16.1621 17.334C16.1621 17.7385 15.8342 18.0664 15.4297 18.0664C15.0252 18.0664 14.6973 17.7385 14.6973 17.334V15.8691C14.6973 15.4646 15.0252 15.1367 15.4297 15.1367C15.8342 15.1367 16.1621 15.4646 16.1621 15.8691V17.334ZM16.1621 12.9395C16.1621 13.3439 15.8342 13.6719 15.4297 13.6719C15.0252 13.6719 14.6973 13.3439 14.6973 12.9395V11.4746C14.6973 11.0701 15.0252 10.7422 15.4297 10.7422C15.8342 10.7422 16.1621 11.0701 16.1621 11.4746V12.9395ZM10.3027 8.54492C10.3027 8.94941 9.9748 9.27734 9.57031 9.27734C9.16582 9.27734 8.83789 8.94941 8.83789 8.54492V7.08008C8.83789 6.67559 9.16582 6.34766 9.57031 6.34766C9.9748 6.34766 10.3027 6.67559 10.3027 7.08008V8.54492ZM13.2324 8.54492C13.2324 8.94941 12.9045 9.27734 12.5 9.27734C12.0955 9.27734 11.7676 8.94941 11.7676 8.54492V7.08008C11.7676 6.67559 12.0955 6.34766 12.5 6.34766C12.9045 6.34766 13.2324 6.67559 13.2324 7.08008V8.54492ZM16.1621 8.54492C16.1621 8.94941 15.8342 9.27734 15.4297 9.27734C15.0252 9.27734 14.6973 8.94941 14.6973 8.54492V7.08008C14.6973 6.67559 15.0252 6.34766 15.4297 6.34766C15.8342 6.34766 16.1621 6.67559 16.1621 7.08008V8.54492ZM10.3027 4.15039C10.3027 4.55488 9.9748 4.88281 9.57031 4.88281C9.16582 4.88281 8.83789 4.55488 8.83789 4.15039V2.68555C8.83789 2.28105 9.16582 1.95312 9.57031 1.95312C9.9748 1.95312 10.3027 2.28105 10.3027 2.68555V4.15039ZM13.2324 4.15039C13.2324 4.55488 12.9045 4.88281 12.5 4.88281C12.0955 4.88281 11.7676 4.55488 11.7676 4.15039V2.68555C11.7676 2.28105 12.0955 1.95312 12.5 1.95312C12.9045 1.95312 13.2324 2.28105 13.2324 2.68555V4.15039ZM16.1621 4.15039C16.1621 4.55488 15.8342 4.88281 15.4297 4.88281C15.0252 4.88281 14.6973 4.55488 14.6973 4.15039V2.68555C14.6973 2.28105 15.0252 1.95312 15.4297 1.95312C15.8342 1.95312 16.1621 2.28105 16.1621 2.68555V4.15039Z" fill="white"/>
<path d="M24.2676 9.76562H19.6289V25H24.2676C24.6721 25 25 24.6721 25 24.2676V10.498C25 10.0936 24.6721 9.76562 24.2676 9.76562ZM23.0469 19.2871C23.0469 19.6916 22.7189 20.0195 22.3145 20.0195C21.91 20.0195 21.582 19.6916 21.582 19.2871V17.8223C21.582 17.4178 21.91 17.0898 22.3145 17.0898C22.7189 17.0898 23.0469 17.4178 23.0469 17.8223V19.2871ZM23.0469 14.8926C23.0469 15.2971 22.7189 15.625 22.3145 15.625C21.91 15.625 21.582 15.2971 21.582 14.8926V13.4277C21.582 13.0232 21.91 12.6953 22.3145 12.6953C22.7189 12.6953 23.0469 13.0232 23.0469 13.4277V14.8926Z" fill="white"/>
<path d="M0.732422 9.76562C0.32793 9.76562 0 10.0936 0 10.498V24.2676C0 24.6721 0.32793 25 0.732422 25H5.37109V9.76562H0.732422ZM3.41797 19.2871C3.41797 19.6916 3.09004 20.0195 2.68555 20.0195C2.28105 20.0195 1.95312 19.6916 1.95312 19.2871V17.8223C1.95312 17.4178 2.28105 17.0898 2.68555 17.0898C3.09004 17.0898 3.41797 17.4178 3.41797 17.8223V19.2871ZM3.41797 14.8926C3.41797 15.2971 3.09004 15.625 2.68555 15.625C2.28105 15.625 1.95312 15.2971 1.95312 14.8926V13.4277C1.95312 13.0232 2.28105 12.6953 2.68555 12.6953C3.09004 12.6953 3.41797 13.0232 3.41797 13.4277V14.8926Z" fill="white"/>
</g>
<defs>
<clipPath id="clip0_204_701">
<rect width="25" height="25" fill="white"/>
</clipPath>
</defs>
</svg>
