<svg width="25" height="26" viewBox="0 0 25 26" fill="none" xmlns="http://www.w3.org/2000/svg">
<g clip-path="url(#clip0_204_562)">
<path d="M13.2324 21.4961H14.6973V25.5H13.2324V21.4961Z" fill="#164094"/>
<path d="M10.3027 21.4961H11.7676V25.5H10.3027V21.4961Z" fill="#164094"/>
<path d="M17.4316 0.5H7.56836C7.16387 0.5 6.83594 0.82793 6.83594 1.23242V25.5H8.83789V20.7637C8.83789 20.3592 9.16582 20.0312 9.57031 20.0312H12.5H15.4297C15.8342 20.0312 16.1621 20.3592 16.1621 20.7637V25.5H18.1641V1.23242C18.1641 0.82793 17.8361 0.5 17.4316 0.5ZM10.3027 17.834C10.3027 18.2385 9.9748 18.5664 9.57031 18.5664C9.16582 18.5664 8.83789 18.2385 8.83789 17.834V16.3691C8.83789 15.9646 9.16582 15.6367 9.57031 15.6367C9.9748 15.6367 10.3027 15.9646 10.3027 16.3691V17.834ZM10.3027 13.4395C10.3027 13.8439 9.9748 14.1719 9.57031 14.1719C9.16582 14.1719 8.83789 13.8439 8.83789 13.4395V11.9746C8.83789 11.5701 9.16582 11.2422 9.57031 11.2422C9.9748 11.2422 10.3027 11.5701 10.3027 11.9746V13.4395ZM13.2324 17.834C13.2324 18.2385 12.9045 18.5664 12.5 18.5664C12.0955 18.5664 11.7676 18.2385 11.7676 17.834V16.3691C11.7676 15.9646 12.0955 15.6367 12.5 15.6367C12.9045 15.6367 13.2324 15.9646 13.2324 16.3691V17.834ZM13.2324 13.4395C13.2324 13.8439 12.9045 14.1719 12.5 14.1719C12.0955 14.1719 11.7676 13.8439 11.7676 13.4395V11.9746C11.7676 11.5701 12.0955 11.2422 12.5 11.2422C12.9045 11.2422 13.2324 11.5701 13.2324 11.9746V13.4395ZM16.1621 17.834C16.1621 18.2385 15.8342 18.5664 15.4297 18.5664C15.0252 18.5664 14.6973 18.2385 14.6973 17.834V16.3691C14.6973 15.9646 15.0252 15.6367 15.4297 15.6367C15.8342 15.6367 16.1621 15.9646 16.1621 16.3691V17.834ZM16.1621 13.4395C16.1621 13.8439 15.8342 14.1719 15.4297 14.1719C15.0252 14.1719 14.6973 13.8439 14.6973 13.4395V11.9746C14.6973 11.5701 15.0252 11.2422 15.4297 11.2422C15.8342 11.2422 16.1621 11.5701 16.1621 11.9746V13.4395ZM10.3027 9.04492C10.3027 9.44941 9.9748 9.77734 9.57031 9.77734C9.16582 9.77734 8.83789 9.44941 8.83789 9.04492V7.58008C8.83789 7.17559 9.16582 6.84766 9.57031 6.84766C9.9748 6.84766 10.3027 7.17559 10.3027 7.58008V9.04492ZM13.2324 9.04492C13.2324 9.44941 12.9045 9.77734 12.5 9.77734C12.0955 9.77734 11.7676 9.44941 11.7676 9.04492V7.58008C11.7676 7.17559 12.0955 6.84766 12.5 6.84766C12.9045 6.84766 13.2324 7.17559 13.2324 7.58008V9.04492ZM16.1621 9.04492C16.1621 9.44941 15.8342 9.77734 15.4297 9.77734C15.0252 9.77734 14.6973 9.44941 14.6973 9.04492V7.58008C14.6973 7.17559 15.0252 6.84766 15.4297 6.84766C15.8342 6.84766 16.1621 7.17559 16.1621 7.58008V9.04492ZM10.3027 4.65039C10.3027 5.05488 9.9748 5.38281 9.57031 5.38281C9.16582 5.38281 8.83789 5.05488 8.83789 4.65039V3.18555C8.83789 2.78105 9.16582 2.45312 9.57031 2.45312C9.9748 2.45312 10.3027 2.78105 10.3027 3.18555V4.65039ZM13.2324 4.65039C13.2324 5.05488 12.9045 5.38281 12.5 5.38281C12.0955 5.38281 11.7676 5.05488 11.7676 4.65039V3.18555C11.7676 2.78105 12.0955 2.45312 12.5 2.45312C12.9045 2.45312 13.2324 2.78105 13.2324 3.18555V4.65039ZM16.1621 4.65039C16.1621 5.05488 15.8342 5.38281 15.4297 5.38281C15.0252 5.38281 14.6973 5.05488 14.6973 4.65039V3.18555C14.6973 2.78105 15.0252 2.45312 15.4297 2.45312C15.8342 2.45312 16.1621 2.78105 16.1621 3.18555V4.65039Z" fill="#164094"/>
<path d="M24.2676 10.2656H19.6289V25.5H24.2676C24.6721 25.5 25 25.1721 25 24.7676V10.998C25 10.5936 24.6721 10.2656 24.2676 10.2656ZM23.0469 19.7871C23.0469 20.1916 22.7189 20.5195 22.3145 20.5195C21.91 20.5195 21.582 20.1916 21.582 19.7871V18.3223C21.582 17.9178 21.91 17.5898 22.3145 17.5898C22.7189 17.5898 23.0469 17.9178 23.0469 18.3223V19.7871ZM23.0469 15.3926C23.0469 15.7971 22.7189 16.125 22.3145 16.125C21.91 16.125 21.582 15.7971 21.582 15.3926V13.9277C21.582 13.5232 21.91 13.1953 22.3145 13.1953C22.7189 13.1953 23.0469 13.5232 23.0469 13.9277V15.3926Z" fill="#164094"/>
<path d="M0.732422 10.2656C0.32793 10.2656 0 10.5936 0 10.998V24.7676C0 25.1721 0.32793 25.5 0.732422 25.5H5.37109V10.2656H0.732422ZM3.41797 19.7871C3.41797 20.1916 3.09004 20.5195 2.68555 20.5195C2.28105 20.5195 1.95312 20.1916 1.95312 19.7871V18.3223C1.95312 17.9178 2.28105 17.5898 2.68555 17.5898C3.09004 17.5898 3.41797 17.9178 3.41797 18.3223V19.7871ZM3.41797 15.3926C3.41797 15.7971 3.09004 16.125 2.68555 16.125C2.28105 16.125 1.95312 15.7971 1.95312 15.3926V13.9277C1.95312 13.5232 2.28105 13.1953 2.68555 13.1953C3.09004 13.1953 3.41797 13.5232 3.41797 13.9277V15.3926Z" fill="#164094"/>
</g>
<defs>
<clipPath id="clip0_204_562">
<rect width="25" height="25" fill="white" transform="translate(0 0.5)"/>
</clipPath>
</defs>
</svg>
