<svg width="71" height="71" viewBox="0 0 71 71" fill="none" xmlns="http://www.w3.org/2000/svg">
<rect width="71" height="71" rx="15" fill="#F9F9F9"/>
<g clip-path="url(#clip0_208_889)">
<path d="M25.3993 41.1068H22.8872C22.5097 41.1068 22.2036 41.4129 22.2036 41.7904V44.3025C22.2036 44.68 22.5097 44.9861 22.8872 44.9861H25.3993C25.7768 44.9861 26.0829 44.68 26.0829 44.3025V41.7904C26.0829 41.4129 25.7768 41.1068 25.3993 41.1068ZM24.7157 43.6189H23.5708V42.474H24.7157V43.6189Z" fill="#164094"/>
<path d="M30.9679 41.1068H28.4558C28.0783 41.1068 27.7722 41.4129 27.7722 41.7904V44.3025C27.7722 44.68 28.0783 44.9861 28.4558 44.9861H30.9679C31.3454 44.9861 31.6515 44.68 31.6515 44.3025V41.7904C31.6515 41.4129 31.3454 41.1068 30.9679 41.1068ZM30.2843 43.6189H29.1394V42.474H30.2843V43.6189Z" fill="#164094"/>
<path d="M25.3993 46.3822H22.8872C22.5097 46.3822 22.2036 46.6883 22.2036 47.0658V49.5779C22.2036 49.9553 22.5097 50.2615 22.8872 50.2615H25.3993C25.7768 50.2615 26.0829 49.9553 26.0829 49.5779V47.0658C26.0829 46.6882 25.7768 46.3822 25.3993 46.3822ZM24.7157 48.8943H23.5708V47.7494H24.7157V48.8943Z" fill="#164094"/>
<path d="M30.9679 46.3822H28.4558C28.0783 46.3822 27.7722 46.6883 27.7722 47.0658V49.5779C27.7722 49.9553 28.0783 50.2615 28.4558 50.2615H30.9679C31.3454 50.2615 31.6515 49.9553 31.6515 49.5779V47.0658C31.6515 46.6882 31.3454 46.3822 30.9679 46.3822ZM30.2843 48.8943H29.1394V47.7494H30.2843V48.8943Z" fill="#164094"/>
<path d="M28.3905 35.6661C28.2627 35.539 28.087 35.4658 27.9072 35.4658C27.7268 35.4658 27.5511 35.5389 27.4239 35.6661C27.2962 35.7933 27.2236 35.9696 27.2236 36.1494C27.2236 36.3292 27.2962 36.5056 27.4239 36.6326C27.5511 36.7598 27.7274 36.833 27.9072 36.833C28.087 36.833 28.2627 36.7599 28.3905 36.6326C28.5176 36.5056 28.5908 36.3292 28.5908 36.1494C28.5908 35.9696 28.5177 35.7933 28.3905 35.6661Z" fill="#164094"/>
<path d="M52.3164 51.6328H51.6328V34.2653C51.6328 33.8878 51.3267 33.5817 50.9492 33.5817H47.6767V24.7754C47.6767 24.5224 47.5369 24.29 47.3134 24.1715L35.829 18.0797C35.6171 17.9673 35.3618 17.9741 35.1564 18.0978C34.9508 18.2215 34.8251 18.4438 34.8251 18.6836V25.6563H27.9071C27.5296 25.6563 27.2235 25.9624 27.2235 26.3399V33.4302C27.2235 33.8077 27.5296 34.1138 27.9071 34.1138C28.2846 34.1138 28.5907 33.8077 28.5907 33.4302V27.0235H37.8876V29.7536H35.5087C35.1312 29.7536 34.8251 30.0597 34.8251 30.4372C34.8251 30.8147 35.1312 31.1208 35.5087 31.1208H37.8876V33.5817H35.5087C35.1312 33.5817 34.8251 33.8878 34.8251 34.2653C34.8251 34.6428 35.1312 34.9489 35.5087 34.9489H37.8876V37.4098H35.5087C35.1312 37.4098 34.8251 37.716 34.8251 38.0934C34.8251 38.4709 35.1312 38.777 35.5087 38.777H37.8876V41.238H35.5087C35.1312 41.238 34.8251 41.5441 34.8251 41.9216C34.8251 42.299 35.1312 42.6052 35.5087 42.6052H37.8876V45.0661H35.5087C35.1312 45.0661 34.8251 45.3722 34.8251 45.7497C34.8251 46.1272 35.1312 46.4333 35.5087 46.4333H37.8876V48.8942H35.5087C35.1312 48.8942 34.8251 49.2003 34.8251 49.5778C34.8251 49.9553 35.1312 50.2614 35.5087 50.2614H37.8876V51.6328H34.4062V39.0547C34.4062 38.6772 34.1001 38.3711 33.7227 38.3711H20.0508C19.6733 38.3711 19.3672 38.6772 19.3672 39.0547V51.6328H18.6836C18.3061 51.6328 18 51.9389 18 52.3164C18 52.6939 18.3061 53 18.6836 53H52.3164C52.6939 53 53 52.6939 53 52.3164C53 51.9389 52.694 51.6328 52.3164 51.6328ZM33.0391 51.6328H20.7344V39.7383H33.0391V51.6328ZM41.5156 34.2653V51.6328H39.2548V26.3399C39.2548 25.9624 38.9487 25.6563 38.5712 25.6563H36.1923V19.82L46.3095 25.1866V33.5817H42.1992C41.8217 33.5817 41.5156 33.8878 41.5156 34.2653ZM50.2656 37.4098H46.5742C46.1967 37.4098 45.8906 37.716 45.8906 38.0934C45.8906 38.4709 46.1967 38.777 46.5742 38.777H50.2656V41.238H46.5742C46.1967 41.238 45.8906 41.5441 45.8906 41.9216C45.8906 42.299 46.1967 42.6052 46.5742 42.6052H50.2656V45.0661H46.5742C46.1967 45.0661 45.8906 45.3722 45.8906 45.7497C45.8906 46.1272 46.1967 46.4333 46.5742 46.4333H50.2656V48.8942H48.1921C47.8146 48.8942 47.5085 49.2003 47.5085 49.5778C47.5085 49.9553 47.8146 50.2614 48.1921 50.2614H50.2656V51.6328H42.8828V34.9489H50.2656V37.4098Z" fill="#164094"/>
<path d="M45.576 49.0948C45.4489 48.9676 45.2732 48.8944 45.0928 48.8944C44.913 48.8944 44.7366 48.9676 44.6095 49.0948C44.4823 49.2219 44.4092 49.3982 44.4092 49.578C44.4092 49.7578 44.4823 49.9342 44.6095 50.0613C44.7367 50.1885 44.913 50.2616 45.0928 50.2616C45.2732 50.2616 45.4489 50.1885 45.576 50.0613C45.7038 49.9342 45.7764 49.7578 45.7764 49.578C45.7764 49.3975 45.7038 49.2219 45.576 49.0948Z" fill="#164094"/>
<path d="M41.5156 25.7246C41.1381 25.7246 40.832 26.0307 40.832 26.4082V27.6843C40.832 28.0618 41.1381 28.3679 41.5156 28.3679C41.8931 28.3679 42.1992 28.0617 42.1992 27.6843V26.4082C42.1992 26.0307 41.8931 25.7246 41.5156 25.7246Z" fill="#164094"/>
<path d="M41.5156 29.7535C41.1381 29.7535 40.832 30.0597 40.832 30.4371V31.8448C40.832 32.2223 41.1381 32.5284 41.5156 32.5284C41.8931 32.5284 42.1992 32.2223 42.1992 31.8448V30.4371C42.1992 30.0597 41.8931 29.7535 41.5156 29.7535Z" fill="#164094"/>
<path d="M44.25 25.7246C43.8725 25.7246 43.5664 26.0307 43.5664 26.4082V27.6843C43.5664 28.0618 43.8725 28.3679 44.25 28.3679C44.6275 28.3679 44.9336 28.0617 44.9336 27.6843V26.4082C44.9336 26.0307 44.6275 25.7246 44.25 25.7246Z" fill="#164094"/>
<path d="M44.25 29.7535C43.8725 29.7535 43.5664 30.0597 43.5664 30.4371V31.8448C43.5664 32.2223 43.8725 32.5284 44.25 32.5284C44.6275 32.5284 44.9336 32.2223 44.9336 31.8448V30.4371C44.9336 30.0597 44.6275 29.7535 44.25 29.7535Z" fill="#164094"/>
</g>
<defs>
<clipPath id="clip0_208_889">
<rect width="35" height="35" fill="white" transform="translate(18 18)"/>
</clipPath>
</defs>
</svg>
