<svg width="40" height="41" viewBox="0 0 40 41" fill="none" xmlns="http://www.w3.org/2000/svg">
<path d="M6.33571 34.8643V5.66786C6.33571 5.0232 6.85775 4.5 7.50357 4.5H21.5179C22.1625 4.5 22.6857 5.0232 22.6857 5.66786V11.5071H33.1964C33.8411 11.5071 34.3643 12.0303 34.3643 12.675V34.8643H35.5321C36.1756 34.8643 36.7 35.3875 36.7 36.0321C36.7 36.6768 36.1756 37.2 35.5321 37.2H5.16786C4.5232 37.2 4 36.6768 4 36.0321C4 35.3875 4.5232 34.8643 5.16786 34.8643H6.33571ZM20.35 34.8643V6.83571H8.67143V34.8643H11.0036V29.025C11.0036 28.3803 11.5268 27.8571 12.1715 27.8571H16.8429C17.4876 27.8571 18.0108 28.3803 18.0108 29.025V34.8643H20.35ZM13.3394 30.1929V34.8643H15.6751V30.1929H13.3394ZM22.6857 13.8429V34.8643H32.0286V13.8429H22.6857ZM26.1858 32.5286H28.5215C29.1662 32.5286 29.6894 32.0054 29.6894 31.3607C29.6894 30.7161 29.1662 30.1929 28.5215 30.1929H26.1858C25.5411 30.1929 25.0179 30.7161 25.0179 31.3607C25.0179 32.0054 25.5411 32.5286 26.1858 32.5286ZM26.1858 27.8571H28.5215C29.1662 27.8571 29.6894 27.3339 29.6894 26.6893C29.6894 26.0446 29.1662 25.5214 28.5215 25.5214H26.1858C25.5411 25.5214 25.0179 26.0446 25.0179 26.6893C25.0179 27.3339 25.5411 27.8571 26.1858 27.8571ZM12.1715 25.5214H16.8429C17.4876 25.5214 18.0108 24.9982 18.0108 24.3536C18.0108 23.7089 17.4876 23.1857 16.8429 23.1857H12.1715C11.5268 23.1857 11.0036 23.7089 11.0036 24.3536C11.0036 24.9982 11.5268 25.5214 12.1715 25.5214ZM26.1858 23.1857H28.5215C29.1662 23.1857 29.6894 22.6625 29.6894 22.0179C29.6894 21.3732 29.1662 20.85 28.5215 20.85H26.1858C25.5411 20.85 25.0179 21.3732 25.0179 22.0179C25.0179 22.6625 25.5411 23.1857 26.1858 23.1857ZM12.1715 20.85H16.8429C17.4876 20.85 18.0108 20.3268 18.0108 19.6821C18.0108 19.0375 17.4876 18.5143 16.8429 18.5143H12.1715C11.5268 18.5143 11.0036 19.0375 11.0036 19.6821C11.0036 20.3268 11.5268 20.85 12.1715 20.85ZM26.1858 18.5143H28.5215C29.1662 18.5143 29.6894 17.9911 29.6894 17.3464C29.6894 16.7018 29.1662 16.1786 28.5215 16.1786H26.1858C25.5411 16.1786 25.0179 16.7018 25.0179 17.3464C25.0179 17.9911 25.5411 18.5143 26.1858 18.5143ZM12.1715 16.1786H16.8429C17.4876 16.1786 18.0108 15.6554 18.0108 15.0107C18.0108 14.3661 17.4876 13.8429 16.8429 13.8429H12.1715C11.5268 13.8429 11.0036 14.3661 11.0036 15.0107C11.0036 15.6554 11.5268 16.1786 12.1715 16.1786ZM16.8429 9.17143C17.4876 9.17143 18.0108 9.69463 18.0108 10.3393C18.0108 10.9839 17.4876 11.5071 16.8429 11.5071H12.1715H12.1306L12.0944 11.5048L12.057 11.5013L12.0208 11.4978L11.9835 11.492L11.9484 11.4861L11.9052 11.4768L11.8655 11.4663L11.8246 11.4546L11.7838 11.4417L11.7499 11.4289L11.7172 11.4149L11.6845 11.4009L11.653 11.3857L11.6214 11.3693L11.5899 11.353L11.5595 11.3343L11.5303 11.3156L11.5012 11.2958L11.4731 11.2747L11.4451 11.2537L11.4124 11.2269L11.3809 11.1988L11.3505 11.1696L11.3213 11.1404L11.2909 11.1066L11.2641 11.075L11.2384 11.0412L11.2139 11.0073L11.194 10.9793L11.1753 10.9489L11.1578 10.9185L11.1403 10.8882L11.1239 10.8566L11.1064 10.8181L11.0889 10.7784L11.0737 10.7375L11.0609 10.7001L11.048 10.6593L11.0387 10.6242L11.0305 10.5892L11.0235 10.553L11.0177 10.5168L11.0118 10.4806L11.0083 10.4444L11.006 10.407L11.0036 10.3696V10.3288L11.0048 10.2914L11.0071 10.2552L11.0095 10.219L11.0118 10.198C11.0819 9.61988 11.5747 9.17143 12.1715 9.17143H16.8429Z" fill="white"/>
</svg>
