<svg width="20" height="21" viewBox="0 0 20 21" fill="none" xmlns="http://www.w3.org/2000/svg">
<g clip-path="url(#clip0_213_2143)">
<path d="M9.49876 0.50291C7.89376 0.522285 4.44313 0.786035 2.51313 2.55666C1.07751 3.97916 0.576256 6.08229 0.517506 8.68291C0.468756 11.2742 0.410006 16.1404 5.10063 17.4654V19.4835C5.10063 19.4835 5.07126 20.291 5.60501 20.4567C6.26251 20.6648 6.63688 20.0435 7.26188 19.376L8.42751 18.0579C11.6369 18.3248 14.095 17.7098 14.3781 17.6185C15.0294 17.4104 18.6975 16.9417 19.2969 12.0748C19.9119 7.04854 18.9975 3.88166 17.3469 2.44916H17.3369C16.8388 1.99041 14.8369 0.53166 10.3644 0.51541C10.3644 0.51541 10.0325 0.49291 9.49876 0.502285V0.50291ZM9.55376 1.91604C10.0094 1.91291 10.2863 1.93229 10.2863 1.93229C14.0719 1.94229 15.8788 3.08166 16.305 3.46541C17.695 4.65666 18.4113 7.51166 17.8869 11.7079C17.3888 15.7767 14.4138 16.0342 13.8631 16.2098C13.6288 16.2848 11.4638 16.8185 8.73626 16.6429C8.73626 16.6429 6.70501 19.0942 6.07001 19.7254C5.96938 19.836 5.85188 19.8685 5.77688 19.8523C5.66938 19.826 5.63688 19.6929 5.64313 19.5104L5.66251 16.161C1.68438 15.061 1.91876 10.9104 1.96126 8.74228C2.01001 6.57416 2.41688 4.80041 3.62813 3.59916C5.25876 2.12479 8.18876 1.92604 9.55251 1.91604H9.55376ZM9.85376 4.08354C9.82101 4.08321 9.78853 4.08936 9.75818 4.10164C9.72783 4.11392 9.70021 4.13209 9.67691 4.1551C9.65361 4.17811 9.6351 4.2055 9.62243 4.23569C9.60977 4.26589 9.60321 4.29829 9.60313 4.33104C9.60313 4.47104 9.71688 4.58166 9.85376 4.58166C10.4734 4.56988 11.0893 4.68089 11.6659 4.9083C12.2425 5.13571 12.7683 5.47502 13.2131 5.90666C14.1213 6.78854 14.5638 7.97354 14.5806 9.52291C14.5806 9.65979 14.6913 9.77354 14.8313 9.77354V9.76354C14.8972 9.7637 14.9606 9.73778 15.0076 9.69142C15.0545 9.64506 15.0812 9.58201 15.0819 9.51604C15.1122 8.78675 14.994 8.05892 14.7343 7.37676C14.4746 6.69461 14.0789 6.07239 13.5713 5.54791C12.5819 4.58104 11.3281 4.08291 9.85376 4.08291V4.08354ZM6.55938 4.65666C6.38247 4.63081 6.20205 4.66632 6.04813 4.75729H6.03501C5.67767 4.96675 5.35576 5.23149 5.08126 5.54166C4.85313 5.80541 4.72938 6.07229 4.69688 6.32916C4.67751 6.48229 4.69063 6.63541 4.73626 6.78166L4.75251 6.79166C5.00938 7.54666 5.34501 8.27291 5.75501 8.95666C6.28314 9.91726 6.9331 10.8056 7.68876 11.5998L7.71126 11.6323L7.74688 11.6585L7.76938 11.6848L7.79563 11.7073C8.59265 12.4652 9.48319 13.1181 10.4456 13.6504C11.5456 14.2492 12.2131 14.5323 12.6138 14.6498V14.656C12.7313 14.6917 12.8381 14.7079 12.9456 14.7079C13.2871 14.6829 13.6103 14.5443 13.8638 14.3142C14.1725 14.0396 14.4343 13.7164 14.6388 13.3573V13.351C14.8306 12.9898 14.7656 12.6479 14.4888 12.4167C13.9343 11.932 13.3347 11.5015 12.6981 11.131C12.2719 10.8998 11.8388 11.0398 11.6631 11.2742L11.2888 11.746C11.0969 11.9804 10.7481 11.9479 10.7481 11.9479L10.7381 11.9542C8.13751 11.2898 7.44376 8.65666 7.44376 8.65666C7.44376 8.65666 7.41126 8.29854 7.65188 8.11604L8.12063 7.73854C8.34501 7.55604 8.50126 7.12354 8.26063 6.69666C7.89276 6.05926 7.4632 5.4595 6.97813 4.90604C6.87209 4.77555 6.72332 4.68678 6.55813 4.65541L6.55938 4.65666ZM10.2863 5.39916C9.95438 5.39916 9.95438 5.90041 10.2894 5.90041C10.7021 5.9071 11.1094 5.99506 11.488 6.15924C11.8667 6.32343 12.2093 6.56063 12.4963 6.85729C12.758 7.14604 12.9592 7.4844 13.0878 7.85231C13.2164 8.22022 13.2699 8.61021 13.245 8.99916C13.2461 9.06499 13.273 9.12775 13.3199 9.174C13.3667 9.22026 13.4298 9.24634 13.4956 9.24666L13.5056 9.25979C13.5719 9.25929 13.6354 9.23273 13.6823 9.18584C13.7292 9.13894 13.7558 9.07548 13.7563 9.00916C13.7788 8.01604 13.47 7.18291 12.8644 6.51541C12.2556 5.84791 11.4063 5.47354 10.3219 5.39916H10.2863ZM10.6969 6.74666C10.355 6.73666 10.3419 7.24791 10.6806 7.25791C11.5044 7.30041 11.9044 7.71666 11.9569 8.57291C11.958 8.63791 11.9846 8.69987 12.0308 8.74555C12.0771 8.79122 12.1394 8.81697 12.2044 8.81729H12.2144C12.2478 8.81585 12.2806 8.80778 12.3109 8.79353C12.3411 8.77928 12.3683 8.75915 12.3907 8.73431C12.4131 8.70946 12.4303 8.68041 12.4413 8.64883C12.4524 8.61726 12.457 8.5838 12.455 8.55041C12.3963 7.43416 11.7875 6.80541 10.7069 6.74729H10.6969V6.74666Z" fill="#164094"/>
</g>
<defs>
<clipPath id="clip0_213_2143">
<rect width="20" height="20" fill="white" transform="translate(0 0.5)"/>
</clipPath>
</defs>
</svg>
