<svg width="30" height="30" viewBox="0 0 30 30" fill="none" xmlns="http://www.w3.org/2000/svg">
<path d="M10.6116 13.9727C11.6968 13.9727 12.7576 13.6509 13.6598 13.048C14.5621 12.4452 15.2653 11.5882 15.6805 10.5857C16.0957 9.58311 16.2043 8.47993 15.9926 7.41565C15.7808 6.35136 15.2582 5.37378 14.4908 4.60653C13.7234 3.83928 12.7457 3.31683 11.6814 3.10524C10.6171 2.89366 9.51392 3.00244 8.51142 3.41784C7.50893 3.83324 6.65214 4.5366 6.0494 5.43896C5.44666 6.34132 5.12505 7.40215 5.12524 8.4873C5.12677 9.94183 5.70532 11.3363 6.73392 12.3647C7.76251 13.3932 9.15712 13.9715 10.6116 13.9727ZM10.6116 4.9209C11.317 4.9209 12.0065 5.13007 12.593 5.52195C13.1795 5.91383 13.6366 6.47083 13.9066 7.1225C14.1765 7.77417 14.2471 8.49126 14.1095 9.18307C13.9719 9.87489 13.6322 10.5104 13.1335 11.0091C12.6347 11.5079 11.9992 11.8476 11.3074 11.9852C10.6156 12.1228 9.89852 12.0522 9.24684 11.7822C8.59517 11.5123 8.03817 11.0552 7.64629 10.4687C7.25441 9.8822 7.04524 9.19267 7.04524 8.4873C7.04601 7.54167 7.422 6.63498 8.09066 5.96632C8.75933 5.29765 9.66601 4.92166 10.6116 4.9209Z" fill="white"/>
<path d="M22.1999 14.4527C23.0068 14.4527 23.7956 14.2134 24.4666 13.7651C25.1376 13.3168 25.6605 12.6796 25.9693 11.9341C26.2781 11.1886 26.3589 10.3682 26.2015 9.57676C26.044 8.78532 25.6555 8.05833 25.0849 7.48773C24.5143 6.91713 23.7873 6.52855 22.9958 6.37112C22.2044 6.21369 21.384 6.29449 20.6385 6.6033C19.893 6.9121 19.2558 7.43505 18.8075 8.106C18.3592 8.77695 18.1199 9.56578 18.1199 10.3727C18.1211 11.4544 18.5514 12.4914 19.3163 13.2563C20.0812 14.0212 21.1182 14.4515 22.1999 14.4527ZM22.1999 8.21273C22.6271 8.21273 23.0447 8.33941 23.3999 8.57675C23.7551 8.8141 24.032 9.15144 24.1955 9.54613C24.3589 9.94082 24.4017 10.3751 24.3184 10.7941C24.235 11.2131 24.0293 11.598 23.7272 11.9001C23.4251 12.2022 23.0403 12.4079 22.6213 12.4912C22.2023 12.5746 21.768 12.5318 21.3733 12.3683C20.9786 12.2048 20.6412 11.928 20.4039 11.5728C20.1666 11.2175 20.0399 10.7999 20.0399 10.3727C20.0404 9.80002 20.2681 9.25091 20.6731 8.84594C21.0781 8.44097 21.6272 8.21324 22.1999 8.21273Z" fill="white"/>
<path d="M22.2001 15.5759C21.2314 15.5788 20.2733 15.7767 19.3826 16.1577C18.492 16.5386 17.6872 17.095 17.0161 17.7935C15.5533 16.5777 13.7744 15.8036 11.8877 15.5618C10.001 15.3201 8.08446 15.6206 6.36233 16.4283C4.64019 17.236 3.18369 18.5174 2.16324 20.1227C1.14279 21.7279 0.600598 23.5906 0.600098 25.4927C0.600098 25.7473 0.70124 25.9915 0.881275 26.1715C1.06131 26.3515 1.30549 26.4527 1.5601 26.4527H19.6657C19.9203 26.4527 20.1645 26.3515 20.3445 26.1715C20.5246 25.9915 20.6257 25.7473 20.6257 25.4927C20.6241 24.9035 20.5704 24.3156 20.4654 23.7359H28.4401C28.6947 23.7359 28.9389 23.6347 29.1189 23.4547C29.299 23.2747 29.4001 23.0305 29.4001 22.7759C29.3981 20.8669 28.6388 19.0368 27.289 17.687C25.9392 16.3371 24.109 15.5779 22.2001 15.5759ZM2.57674 24.5327C2.79281 22.6923 3.63434 20.982 4.96054 19.6878C6.28673 18.3936 8.01714 17.5942 9.86224 17.4232C11.7073 17.2521 13.5552 17.7199 15.0967 18.7483C16.6381 19.7767 17.7797 21.3032 18.3303 23.0725C18.4837 23.5477 18.5902 24.0367 18.6481 24.5327H2.57674ZM19.9067 21.8159C19.531 20.8576 19.0093 19.9631 18.3601 19.1644C19.0274 18.4521 19.8792 17.939 20.8209 17.6822C21.7625 17.4254 22.7569 17.435 23.6934 17.7098C24.6299 17.9847 25.4717 18.514 26.1252 19.239C26.7787 19.9639 27.2181 20.856 27.3947 21.8159H19.9067Z" fill="white"/>
</svg>
