<svg width="41" height="41" viewBox="0 0 41 41" fill="none" xmlns="http://www.w3.org/2000/svg">
<path d="M14.8992 19.1303C16.346 19.1303 17.7604 18.7013 18.9634 17.8974C20.1664 17.0936 21.104 15.951 21.6577 14.6143C22.2113 13.2775 22.3561 11.8066 22.0737 10.3875C21.7914 8.9685 21.0945 7.66506 20.0714 6.64206C19.0482 5.61906 17.7446 4.92246 16.3255 4.64035C14.9064 4.35823 13.4355 4.50328 12.0989 5.05715C10.7622 5.61101 9.61985 6.54882 8.8162 7.75197C8.01254 8.95511 7.58373 10.3696 7.58398 11.8164C7.58602 13.7558 8.35742 15.6151 9.72888 16.9864C11.1003 18.3576 12.9598 19.1286 14.8992 19.1303ZM14.8992 7.06122C15.8397 7.06122 16.759 7.34011 17.541 7.86262C18.323 8.38513 18.9325 9.12779 19.2924 9.99669C19.6523 10.8656 19.7465 11.8217 19.563 12.7441C19.3795 13.6665 18.9266 14.5138 18.2616 15.1789C17.5966 15.8439 16.7493 16.2968 15.8269 16.4803C14.9045 16.6637 13.9483 16.5696 13.0794 16.2097C12.2105 15.8497 11.4679 15.2403 10.9454 14.4583C10.4229 13.6763 10.144 12.7569 10.144 11.8164C10.145 10.5556 10.6463 9.34666 11.5379 8.45511C12.4294 7.56356 13.6383 7.06224 14.8992 7.06122Z" fill="white"/>
<path d="M30.3502 19.7703C31.4261 19.7703 32.4779 19.4512 33.3725 18.8535C34.2671 18.2557 34.9643 17.4061 35.3761 16.4121C35.7878 15.418 35.8955 14.3242 35.6856 13.269C35.4757 12.2137 34.9576 11.2444 34.1968 10.4836C33.436 9.7228 32.4667 9.20469 31.4114 8.99479C30.3562 8.78489 29.2624 8.89262 28.2684 9.30436C27.2743 9.7161 26.4247 10.4134 25.827 11.308C25.2292 12.2026 24.9102 13.2543 24.9102 14.3303C24.9119 15.7725 25.4855 17.1552 26.5054 18.1751C27.5252 19.1949 28.9079 19.7686 30.3502 19.7703ZM30.3502 11.4503C30.9198 11.4503 31.4766 11.6192 31.9502 11.9356C32.4238 12.2521 32.7929 12.7019 33.0109 13.2281C33.2289 13.7544 33.2859 14.3335 33.1748 14.8921C33.0637 15.4508 32.7894 15.964 32.3866 16.3667C31.9838 16.7695 31.4707 17.0438 30.912 17.1549C30.3534 17.266 29.7743 17.209 29.248 16.991C28.7218 16.7731 28.272 16.4039 27.9555 15.9303C27.6391 15.4567 27.4702 14.8999 27.4702 14.3303C27.4708 13.5666 27.7745 12.8345 28.3144 12.2945C28.8544 11.7546 29.5865 11.4509 30.3502 11.4503Z" fill="white"/>
<path d="M30.35 21.2679C29.0585 21.2718 27.7809 21.5356 26.5934 22.0436C25.406 22.5515 24.3329 23.2933 23.438 24.2247C21.4876 22.6036 19.1158 21.5715 16.6002 21.2491C14.0846 20.9268 11.5292 21.3275 9.23302 22.4044C6.93684 23.4813 4.99484 25.1899 3.63424 27.3302C2.27364 29.4705 1.55072 31.9541 1.55005 34.4903C1.55005 34.8297 1.68491 35.1553 1.92495 35.3954C2.165 35.6354 2.49057 35.7703 2.83005 35.7703H26.9708C27.3103 35.7703 27.6359 35.6354 27.8759 35.3954C28.116 35.1553 28.2508 34.8297 28.2508 34.4903C28.2487 33.7047 28.1772 32.9208 28.0371 32.1479H38.67C39.0095 32.1479 39.3351 32.013 39.5751 31.773C39.8152 31.5329 39.95 31.2073 39.95 30.8679C39.9473 28.3226 38.935 25.8824 37.1353 24.0826C35.3355 22.2829 32.8953 21.2706 30.35 21.2679ZM4.18557 33.2103C4.47366 30.7564 5.59571 28.476 7.36397 26.7504C9.13223 25.0249 11.4394 23.9589 13.8996 23.7309C16.3597 23.5029 18.8235 24.1266 20.8788 25.4978C22.9341 26.8689 24.4562 28.9043 25.1904 31.2634C25.3949 31.8969 25.5368 32.549 25.614 33.2103H4.18557ZM27.2921 29.5879C26.7913 28.3101 26.0957 27.1175 25.23 26.0525C26.1198 25.1028 27.2556 24.4187 28.5111 24.0763C29.7665 23.7339 31.0924 23.7467 32.3411 24.1131C33.5897 24.4796 34.7122 25.1854 35.5835 26.152C36.4548 27.1186 37.0407 28.308 37.2761 29.5879H27.2921Z" fill="white"/>
</svg>
