<svg width="101" height="102" viewBox="0 0 101 102" fill="none" xmlns="http://www.w3.org/2000/svg">
<rect y="0.5" width="101" height="101" rx="15" fill="#F9F9F9"/>
<g clip-path="url(#clip0_788_341)">
<path d="M31.7417 61.4126H27.0764C26.3754 61.4126 25.8069 61.9811 25.8069 62.6821V67.3474C25.8069 68.0484 26.3754 68.6169 27.0764 68.6169H31.7417C32.4427 68.6169 33.0112 68.0484 33.0112 67.3474V62.6821C33.0112 61.981 32.4429 61.4126 31.7417 61.4126ZM30.4722 66.0779H28.3459V63.9517H30.4722V66.0779Z" fill="#164094"/>
<path d="M42.083 61.4126H37.4177C36.7167 61.4126 36.1482 61.9811 36.1482 62.6821V67.3474C36.1482 68.0484 36.7167 68.6169 37.4177 68.6169H42.083C42.784 68.6169 43.3525 68.0484 43.3525 67.3474V62.6821C43.3525 61.981 42.7842 61.4126 42.083 61.4126ZM40.8135 66.0779H38.6873V63.9517H40.8135V66.0779Z" fill="#164094"/>
<path d="M31.7417 71.2097H27.0764C26.3754 71.2097 25.8069 71.7782 25.8069 72.4792V77.1445C25.8069 77.8456 26.3754 78.4141 27.0764 78.4141H31.7417C32.4427 78.4141 33.0112 77.8456 33.0112 77.1445V72.4792C33.0112 71.7781 32.4429 71.2097 31.7417 71.2097ZM30.4722 75.875H28.3459V73.7488H30.4722V75.875Z" fill="#164094"/>
<path d="M42.083 71.2097H37.4177C36.7167 71.2097 36.1482 71.7782 36.1482 72.4792V77.1445C36.1482 77.8456 36.7167 78.4141 37.4177 78.4141H42.083C42.784 78.4141 43.3525 77.8456 43.3525 77.1445V72.4792C43.3525 71.7781 42.7842 71.2097 42.083 71.2097ZM40.8135 75.875H38.6873V73.7488H40.8135V75.875Z" fill="#164094"/>
<path d="M37.297 51.3085C37.0596 51.0724 36.7333 50.9365 36.3994 50.9365C36.0643 50.9365 35.738 51.0722 35.5019 51.3085C35.2646 51.5446 35.1299 51.8722 35.1299 52.2061C35.1299 52.5399 35.2646 52.8675 35.5019 53.1035C35.738 53.3396 36.0655 53.4756 36.3994 53.4756C36.7333 53.4756 37.0596 53.3397 37.297 53.1035C37.533 52.8675 37.6689 52.5399 37.6689 52.2061C37.6689 51.8722 37.5331 51.5446 37.297 51.3085Z" fill="#164094"/>
<path d="M81.7305 80.961H80.4609V48.707C80.4609 48.006 79.8924 47.4375 79.1914 47.4375H73.1138V31.0829C73.1138 30.613 72.8543 30.1815 72.4391 29.9614L51.111 18.6481C50.7175 18.4394 50.2434 18.4519 49.8618 18.6817C49.4801 18.9114 49.2466 19.3242 49.2466 19.7696V32.7188H36.3989C35.6979 32.7188 35.1294 33.2873 35.1294 33.9883V47.1562C35.1294 47.8572 35.6979 48.4257 36.3989 48.4257C37.1 48.4257 37.6685 47.8572 37.6685 47.1562V35.2579H54.9341V40.3281H50.5161C49.8151 40.3281 49.2466 40.8966 49.2466 41.5976C49.2466 42.2987 49.8151 42.8672 50.5161 42.8672H54.9341V47.4375H50.5161C49.8151 47.4375 49.2466 48.006 49.2466 48.707C49.2466 49.4081 49.8151 49.9765 50.5161 49.9765H54.9341V54.5469H50.5161C49.8151 54.5469 49.2466 55.1154 49.2466 55.8164C49.2466 56.5174 49.8151 57.0859 50.5161 57.0859H54.9341V61.6562H50.5161C49.8151 61.6562 49.2466 62.2247 49.2466 62.9258C49.2466 63.6268 49.8151 64.1953 50.5161 64.1953H54.9341V68.7656H50.5161C49.8151 68.7656 49.2466 69.3341 49.2466 70.0351C49.2466 70.7362 49.8151 71.3047 50.5161 71.3047H54.9341V75.875H50.5161C49.8151 75.875 49.2466 76.4435 49.2466 77.1445C49.2466 77.8456 49.8151 78.414 50.5161 78.414H54.9341V80.961H48.4688V57.6016C48.4688 56.9006 47.9003 56.3321 47.1992 56.3321H21.8086C21.1076 56.3321 20.5391 56.9006 20.5391 57.6016V80.961H19.2695C18.5685 80.961 18 81.5295 18 82.2305C18 82.9315 18.5685 83.5 19.2695 83.5H81.7305C82.4315 83.5 83 82.9315 83 82.2305C83 81.5295 82.4316 80.961 81.7305 80.961ZM45.9297 80.961H23.0781V58.8711H45.9297V80.961ZM61.6719 48.707V80.961H57.4732V33.9883C57.4732 33.2873 56.9047 32.7188 56.2036 32.7188H51.7857V21.88L70.5747 31.8466V47.4375H62.9414C62.2404 47.4375 61.6719 48.006 61.6719 48.707ZM77.9219 54.5469H71.0664C70.3654 54.5469 69.7969 55.1154 69.7969 55.8164C69.7969 56.5174 70.3654 57.0859 71.0664 57.0859H77.9219V61.6562H71.0664C70.3654 61.6562 69.7969 62.2247 69.7969 62.9258C69.7969 63.6268 70.3654 64.1953 71.0664 64.1953H77.9219V68.7656H71.0664C70.3654 68.7656 69.7969 69.3341 69.7969 70.0351C69.7969 70.7362 70.3654 71.3047 71.0664 71.3047H77.9219V75.875H74.071C73.37 75.875 72.8015 76.4435 72.8015 77.1445C72.8015 77.8456 73.37 78.414 74.071 78.414H77.9219V80.961H64.2109V49.9765H77.9219V54.5469Z" fill="#164094"/>
<path d="M69.2129 76.2473C68.9769 76.0111 68.6506 75.8752 68.3154 75.8752C67.9815 75.8752 67.654 76.0111 67.4179 76.2473C67.1817 76.4833 67.0459 76.8109 67.0459 77.1448C67.0459 77.4787 67.1816 77.8062 67.4179 78.0423C67.6541 78.2785 67.9815 78.4143 68.3154 78.4143C68.6506 78.4143 68.9769 78.2786 69.2129 78.0423C69.4503 77.8062 69.585 77.4787 69.585 77.1448C69.585 76.8096 69.4503 76.4833 69.2129 76.2473Z" fill="#164094"/>
<path d="M61.6719 32.8457C60.9708 32.8457 60.4023 33.4142 60.4023 34.1152V36.4851C60.4023 37.1862 60.9708 37.7546 61.6719 37.7546C62.3729 37.7546 62.9414 37.1861 62.9414 36.4851V34.1152C62.9414 33.4142 62.3729 32.8457 61.6719 32.8457Z" fill="#164094"/>
<path d="M61.6719 40.328C60.9708 40.328 60.4023 40.8965 60.4023 41.5975V44.2118C60.4023 44.9129 60.9708 45.4813 61.6719 45.4813C62.3729 45.4813 62.9414 44.9128 62.9414 44.2118V41.5975C62.9414 40.8965 62.3729 40.328 61.6719 40.328Z" fill="#164094"/>
<path d="M66.75 32.8457C66.049 32.8457 65.4805 33.4142 65.4805 34.1152V36.4851C65.4805 37.1862 66.049 37.7546 66.75 37.7546C67.451 37.7546 68.0195 37.1861 68.0195 36.4851V34.1152C68.0195 33.4142 67.451 32.8457 66.75 32.8457Z" fill="#164094"/>
<path d="M66.75 40.328C66.049 40.328 65.4805 40.8965 65.4805 41.5975V44.2118C65.4805 44.9129 66.049 45.4813 66.75 45.4813C67.451 45.4813 68.0195 44.9128 68.0195 44.2118V41.5975C68.0195 40.8965 67.451 40.328 66.75 40.328Z" fill="#164094"/>
</g>
<defs>
<clipPath id="clip0_788_341">
<rect width="65" height="65" fill="white" transform="translate(18 18.5)"/>
</clipPath>
</defs>
</svg>
