<svg width="101" height="102" viewBox="0 0 101 102" fill="none" xmlns="http://www.w3.org/2000/svg">
<rect y="0.5" width="101" height="101" rx="15" fill="#F9F9F9"/>
<path d="M50.5483 19.8C47.6638 19.8 45.4097 22.0137 43.513 24.8967C41.6164 27.7797 39.9899 31.5614 38.6184 35.5855C37.5919 38.5973 36.7132 41.7222 36.0141 44.6903C35.6138 43.6981 35.1954 42.7447 34.7396 41.9C34.1295 40.7692 33.4743 39.7909 32.6847 39.024C31.8951 38.257 30.8915 37.6579 29.7171 37.6579C28.6259 37.6579 27.6745 38.1797 26.9196 38.8626C26.1647 39.5456 25.537 40.4185 24.9533 41.4277C23.7859 43.4461 22.8062 46.0375 21.9784 48.7711C20.323 54.2381 19.3 60.0887 19.3 62.9565C19.3 68.1846 23.1938 72.5252 28.2261 73.2544V79.3247H20.7897C18.8487 79.3674 18.8487 82.2582 20.7897 82.301H80.3143C82.2553 82.2582 82.2553 79.3674 80.3143 79.3247H72.8706V73.2544C77.9057 72.5277 81.8024 68.1866 81.8024 62.9565C81.8024 60.0887 80.7795 54.2381 79.1241 48.7711C78.2963 46.0375 77.3166 43.4461 76.1492 41.4277C75.5655 40.4185 74.9378 39.5456 74.1829 38.8626C73.428 38.1797 72.4766 37.6579 71.3854 37.6579C70.211 37.6579 69.2074 38.257 68.4178 39.024C67.6282 39.7909 66.973 40.7692 66.3629 41.9C65.9074 42.744 65.4884 43.6961 65.0883 44.6874C64.3894 41.7202 63.5102 38.5963 62.4841 35.5855C61.1126 31.5614 59.4818 27.7797 57.5851 24.8967C55.6884 22.0137 53.4328 19.8 50.5483 19.8ZM50.5483 22.7778C51.7733 22.7778 53.4388 23.9992 55.1029 26.5287C56.767 29.0582 58.3461 32.6643 59.6676 36.5418C62.3107 44.2967 63.9461 53.2951 63.9461 57.0024C63.9461 63.9126 58.7471 69.5742 52.0379 70.3129V66.5533L56.0693 62.5219C57.0407 61.5751 56.3425 59.9286 54.9866 59.9685C54.6005 59.9804 54.2342 60.142 53.965 60.419L52.0379 62.3432V57.6215L56.0693 53.5916C57.0433 52.6449 56.3443 50.9953 54.9866 51.0367C54.6005 51.0486 54.2342 51.2102 53.965 51.4872L52.0379 53.4143V48.0764C52.0503 47.2369 51.3661 46.5533 50.5265 46.5664C49.7047 46.5785 49.0481 47.2545 49.0602 48.0764V53.4099L47.1375 51.4872C46.8577 51.1996 46.4736 51.0371 46.0723 51.0367C44.7368 51.0371 44.0776 52.6601 45.0346 53.5916L49.0602 57.6157V62.3388L47.1375 60.419C46.8587 60.1293 46.4744 59.9647 46.0723 59.9627C44.7315 59.959 44.0699 61.5909 45.0346 62.5219L49.0602 66.5475V70.3129C42.3512 69.5748 37.1579 63.9131 37.1579 57.0024C37.1579 53.2951 38.7933 44.2967 41.4363 36.5418C42.7578 32.6643 44.3369 29.0582 46.001 26.5287C47.6652 23.9992 49.3234 22.7778 50.5483 22.7778ZM29.7171 40.6342C29.8691 40.6342 30.158 40.7188 30.6109 41.1588C31.0638 41.5987 31.6012 42.3496 32.1208 43.3126C33.1176 45.1598 34.0627 47.768 34.8443 50.4874C34.4153 53.0759 34.1801 55.3379 34.1801 57.0024C34.1801 60.1683 35.0884 63.126 36.6521 65.6348C35.7512 67.9697 33.7131 69.736 31.2038 70.2446V64.4446C31.2161 63.6057 30.5328 62.9224 29.6939 62.9347C28.8714 62.9459 28.214 63.6222 28.2261 64.4446V70.2475C24.8206 69.5617 22.2764 66.5722 22.2764 62.9565C22.2764 60.8929 23.2521 54.8381 24.8283 49.6329C25.6164 47.0302 26.5608 44.5943 27.5299 42.9187C28.0145 42.081 28.5088 41.4389 28.9164 41.0702C29.324 40.7014 29.5755 40.6342 29.7171 40.6342ZM71.3854 40.6342C71.527 40.6342 71.7785 40.7014 72.1861 41.0702C72.5937 41.4389 73.088 42.081 73.5726 42.9187C74.5416 44.5943 75.4861 47.0302 76.2742 49.6329C77.8504 54.8381 78.8261 60.8929 78.8261 62.9565C78.8261 66.5742 76.279 69.5654 72.8706 70.249V64.4446C72.8829 63.6057 72.1996 62.9224 71.3607 62.9347C70.5411 62.9499 69.8881 63.625 69.9001 64.4446V70.2446C67.3902 69.7364 65.3515 67.9701 64.4504 65.6348C66.0149 63.126 66.9224 60.1683 66.9224 57.0024C66.9224 55.3372 66.689 53.0743 66.2597 50.4845C67.0411 47.7663 67.9853 45.1591 68.9817 43.3126C69.5013 42.3496 70.0387 41.5987 70.4916 41.1588C70.9445 40.7189 71.2334 40.6342 71.3854 40.6342ZM62.4245 68.2522C63.9994 70.9116 66.721 72.8094 69.9001 73.266V79.3247H52.0379V73.3038C56.1107 72.9329 59.7592 71.0639 62.4245 68.2522ZM38.6765 68.2536C41.3409 71.0653 44.9876 72.9334 49.0602 73.3038V79.3247H31.2038V73.2645C34.3816 72.8077 37.1017 70.9117 38.6765 68.2536Z" fill="#164094"/>
</svg>
