<svg width="101" height="102" viewBox="0 0 101 102" fill="none" xmlns="http://www.w3.org/2000/svg">
<rect y="0.5" width="101" height="101" rx="15" fill="#F9F9F9"/>
<g clip-path="url(#clip0_788_258)">
<path d="M61.3328 25.5291C61.6679 25.5291 61.9955 25.3932 62.2316 25.1571C62.4676 24.9209 62.6023 24.5934 62.6023 24.2595C62.6023 23.9244 62.4676 23.5981 62.2316 23.362C61.9955 23.1258 61.6679 22.99 61.3328 22.99C60.9989 22.99 60.6713 23.1258 60.4352 23.362C60.1991 23.5981 60.0632 23.9244 60.0632 24.2595C60.0632 24.5934 60.1989 24.9209 60.4352 25.1571C60.6715 25.3932 60.9989 25.5291 61.3328 25.5291Z" fill="#164094"/>
<path d="M50.4999 46.5175C51.201 46.5175 51.7694 45.9491 51.7694 45.248V44.0418C54.1257 43.4605 55.6365 41.4553 55.969 39.4779C56.3997 36.9161 55.0607 34.689 52.5576 33.8043C52.2983 33.7127 52.034 33.6173 51.7694 33.519V28.5972C52.4294 28.8179 52.8623 29.1258 52.8829 29.1408C53.4412 29.5583 54.233 29.4473 54.6548 28.8905C55.0782 28.3317 54.9685 27.5354 54.4096 27.112C54.3427 27.0613 53.3036 26.2906 51.7693 25.9715V24.9362C51.7693 24.2351 51.2008 23.6667 50.4998 23.6667C49.7988 23.6667 49.2303 24.2351 49.2303 24.9362V25.963C49.0658 25.9975 48.8996 26.0383 48.7314 26.0888C47.077 26.5859 45.8407 27.9992 45.5049 29.7774C45.1976 31.405 45.7219 32.977 46.8732 33.88C47.4711 34.3489 48.2135 34.7774 49.2302 35.2293V41.6412C48.3884 41.5719 47.8413 41.357 46.919 40.7535C46.3321 40.3697 45.5455 40.5343 45.1616 41.1209C44.7779 41.7076 44.9421 42.4943 45.529 42.8782C46.9738 43.8234 47.9634 44.1108 49.2302 44.1862V45.248C49.2305 45.9491 49.7989 46.5175 50.4999 46.5175ZM53.4652 39.0568C53.3158 39.9457 52.7406 40.8853 51.7696 41.3587V36.2202C53.6646 36.9245 53.5476 38.5662 53.4652 39.0568ZM48.4403 31.8821C48.0441 31.5714 47.8713 30.9301 47.9999 30.2484C48.1133 29.6483 48.4959 28.9338 49.2305 28.6078V32.3979C48.9352 32.232 48.6673 32.0602 48.4403 31.8821Z" fill="#164094"/>
<path d="M66.7585 74.9309C65.6082 74.9309 64.4924 75.1973 63.4804 75.7079C62.1515 74.4912 60.6806 73.4805 59.1062 72.6918C61.2429 71.9803 63.2225 70.7814 64.8606 69.1432C68.566 65.4379 70.0269 59.9878 68.6735 54.9196C68.5563 54.4806 68.2135 54.1378 67.7746 54.0206C62.7058 52.6671 57.256 54.1283 53.5508 57.8334C52.8825 58.5017 52.2884 59.2274 51.7696 59.9967V51.6251C55.5853 51.3348 59.3191 49.7345 62.2309 46.8228C64.6324 44.4213 66.2205 41.3914 66.8235 38.0611C67.4123 34.8085 67.0295 31.493 65.7165 28.4726C65.437 27.8296 64.6891 27.5351 64.0462 27.8145C63.4033 28.0941 63.1085 28.8419 63.388 29.4849C65.7055 34.8156 64.5464 40.9165 60.4355 45.0275C57.6959 47.767 54.0986 49.1365 50.5 49.1363C46.9022 49.136 43.3034 47.7664 40.5645 45.0275C35.086 39.5491 35.086 30.6351 40.5645 25.1568C44.6754 21.0458 50.7765 19.8869 56.1073 22.2043C56.7505 22.484 57.4981 22.1893 57.7777 21.5462C58.0572 20.9032 57.7626 20.1554 57.1196 19.8758C54.0991 18.5628 50.7833 18.1799 47.531 18.7688C44.2005 19.3718 41.1707 20.9598 38.769 23.3614C32.3008 29.8298 32.3008 40.3546 38.769 46.823C41.6809 49.7347 45.4147 51.335 49.2304 51.6252V59.9969C48.7114 59.2275 48.1174 58.5018 47.4491 57.8335C43.7439 54.1282 38.2939 52.6672 33.2253 54.0208C32.7865 54.1379 32.4436 54.4807 32.3264 54.9197C30.973 59.988 32.4341 65.438 36.1393 69.1434C37.7776 70.7816 39.7571 71.9804 41.8936 72.6919C40.3192 73.4808 38.8484 74.4913 37.5195 75.708C36.5075 75.1974 35.3916 74.9311 34.2414 74.9311C30.2164 74.9311 26.9419 78.2056 26.9419 82.2306C26.9419 82.9316 27.5104 83.5001 28.2114 83.5001H72.7884C73.4894 83.5001 74.0579 82.9316 74.0579 82.2306C74.058 78.2054 70.7835 74.9309 66.7585 74.9309ZM55.3461 59.6288C58.2358 56.7387 62.4085 55.4988 66.3911 56.303C67.1955 60.2855 65.9551 64.4581 63.0652 67.3479C60.5569 69.8564 57.0825 71.1208 53.6041 70.8853L59.0822 65.4073C59.5779 64.9115 59.5779 64.1077 59.0822 63.6118C58.5863 63.1162 57.7827 63.1162 57.2868 63.6118L51.8087 69.0899C51.5732 65.6118 52.8379 62.1369 55.3461 59.6288ZM34.6089 56.303C38.5913 55.4991 42.7645 56.7392 45.654 59.6288C48.1623 62.1371 49.4269 65.6118 49.1914 69.0899L43.7133 63.6118C43.2174 63.1162 42.4139 63.1162 41.9179 63.6118C41.4221 64.1076 41.4221 64.9114 41.9179 65.4073L47.3963 70.8857C47.1216 70.9044 46.8469 70.9143 46.5726 70.9143C43.3754 70.914 40.2448 69.658 37.9349 67.3479C35.0449 64.4581 33.8046 60.2855 34.6089 56.303ZM29.6529 80.961C30.2099 78.9502 32.0561 77.4699 34.2416 77.4699C35.2248 77.4699 36.1693 77.7684 36.9729 78.3328C37.4803 78.689 38.1706 78.6268 38.606 78.1856C41.7725 74.9773 45.9966 73.2103 50.5 73.2103C55.0033 73.2103 59.2274 74.9773 62.3939 78.1856C62.8296 78.627 63.5198 78.6891 64.0271 78.3328C64.8307 77.7684 65.7752 77.4699 66.7584 77.4699C68.9439 77.4699 70.7901 78.9502 71.3471 80.961H29.6529Z" fill="#164094"/>
</g>
<defs>
<clipPath id="clip0_788_258">
<rect width="65" height="65" fill="white" transform="translate(18 18.5)"/>
</clipPath>
</defs>
</svg>
