<svg width="101" height="102" viewBox="0 0 101 102" fill="none" xmlns="http://www.w3.org/2000/svg">
<rect y="0.5" width="101" height="101" rx="15" fill="#F9F9F9"/>
<g clip-path="url(#clip0_788_120)">
<path d="M31.1844 35.8084C34.0167 36.2053 36.613 37.3783 38.692 39.2007C42.2211 42.2941 46.761 44.1075 51.4757 44.3072C51.7652 44.3194 52.0539 44.3256 52.3428 44.3254C56.8258 44.3254 61.2269 42.8569 64.8216 40.1459C66.2787 39.047 67.5709 37.7715 68.6826 36.3478C69.9467 37.4858 71.1012 38.7464 72.1178 40.1083C72.3671 40.4422 72.7492 40.6185 73.136 40.6185C73.4 40.6185 73.6664 40.5364 73.8944 40.3663C74.4562 39.9469 74.5716 39.1515 74.1522 38.5896C72.8207 36.8059 71.2733 35.1809 69.5629 33.7538C68.8673 31.695 67.8475 29.7545 66.5272 27.981C63.8181 24.3414 60.0788 21.7514 55.7135 20.4908C51.491 19.2715 46.9015 19.4278 42.7907 20.9311C42.1322 21.1718 41.7937 21.9008 42.0345 22.5592C42.2752 23.2175 43.0041 23.5562 43.6626 23.3154C47.2709 21.9957 51.3006 21.8589 55.0092 22.9299C58.837 24.0352 62.1156 26.306 64.4908 29.4969C64.8246 29.9453 65.1337 30.4071 65.4232 30.8784C65.0624 30.6726 64.6984 30.4722 64.3289 30.2827C60.6353 28.3888 56.6677 27.3542 52.5206 27.1959L49.6326 24.6498C49.1067 24.1862 48.3047 24.2366 47.841 24.7625C47.3774 25.2884 47.4278 26.0905 47.9537 26.5541L48.7892 27.2906C46.861 27.4665 44.961 27.8375 43.1144 28.4004C42.4437 28.6047 42.0657 29.3141 42.2702 29.9847C42.4745 30.6553 43.1846 31.0336 43.8544 30.8288C46.2892 30.0867 48.8273 29.7105 51.3984 29.7105C53.6309 29.7105 55.8085 29.989 57.9155 30.5369L54.8636 33.0398C54.3215 33.4843 54.2425 34.2842 54.687 34.8263C54.9381 35.1324 55.3021 35.2908 55.6692 35.2908C55.9523 35.2908 56.2374 35.1965 56.4735 35.0029L60.7837 31.4681C61.5919 31.7845 62.3884 32.1407 63.1706 32.5418C64.4083 33.1764 65.5941 33.9162 66.7161 34.7447C65.7334 36.0109 64.5863 37.1432 63.2926 38.1191C59.935 40.6515 55.7759 41.9482 51.5829 41.7708C47.4443 41.5957 43.4606 40.0049 40.3653 37.2917C38.2917 35.4742 35.7884 34.2052 33.0553 33.5751C33.614 32.1841 34.3392 30.8734 35.2202 29.6644C35.633 29.0979 35.5085 28.3038 34.942 27.891C34.3755 27.4783 33.5812 27.6027 33.1684 28.1693C31.8431 29.9884 30.8272 32.0079 30.1491 34.1721C30.0376 34.528 30.0883 34.9149 30.2877 35.2301C30.4871 35.5451 30.815 35.7567 31.1844 35.8084Z" fill="#164094"/>
<path d="M43.3277 71.4257C44.242 66.8228 43.5426 61.9843 41.358 57.8014C39.1433 53.5606 35.4936 50.1949 31.0814 48.3242C29.4013 47.6118 27.651 47.1274 25.8621 46.8766C26.2155 45.2138 26.7299 43.5847 27.4006 42.0242C27.6774 41.3801 27.3796 40.6336 26.7357 40.3567C26.091 40.0797 25.345 40.3777 25.0681 41.0217C24.1892 43.0668 23.5555 45.2194 23.1748 47.4142C21.7398 49.0458 20.5691 50.8995 19.6932 52.9296C17.5071 57.9965 17.4356 63.6221 19.4919 68.77C21.5588 73.9451 25.5196 78 30.6449 80.188C33.2205 81.2877 35.9484 81.8432 38.7031 81.8432C40.2156 81.8432 41.7365 81.6756 43.2438 81.3386C43.6077 81.2572 43.9177 81.0199 44.0908 80.6896C44.2642 80.3593 44.2835 79.9695 44.1436 79.6238C43.0713 76.9721 42.789 74.1373 43.3277 71.4257ZM31.6417 77.8529C27.142 75.932 23.6643 72.3717 21.8496 67.8281C20.0456 63.3116 20.1076 58.3776 22.0243 53.9351C22.2458 53.4218 22.491 52.9231 22.7545 52.4367C22.7567 52.8522 22.7651 53.2675 22.7858 53.6822C22.9924 57.828 24.0802 61.7815 26.0168 65.4521L25.2559 69.2262C25.1172 69.9135 25.562 70.5829 26.2493 70.7214C26.3339 70.7384 26.4183 70.7467 26.5015 70.7467C27.0933 70.7467 27.623 70.3305 27.7445 69.728L27.9646 68.6364C29.081 70.2181 30.3524 71.6782 31.7631 72.9959C32.0078 73.2245 32.3189 73.3376 32.6293 73.3376C32.9687 73.3376 33.3072 73.2023 33.5572 72.9347C34.0359 72.4224 34.0084 71.6191 33.4961 71.1406C31.6362 69.4031 30.0413 67.3931 28.7556 65.1665C27.6394 63.2331 26.7918 61.208 26.2127 59.1093L29.9063 60.5009C30.0537 60.5565 30.205 60.5828 30.3535 60.5828C30.8667 60.5828 31.35 60.2693 31.5415 59.7606C31.7887 59.1046 31.4574 58.3723 30.8012 58.1252L25.5849 56.1598C25.4548 55.3017 25.365 54.4337 25.3212 53.5557C25.252 52.1666 25.2996 50.7696 25.4562 49.3839C27.0441 49.6018 28.5984 50.0288 30.0903 50.6614C33.9621 52.3029 37.1645 55.256 39.1075 58.9765C41.025 62.6482 41.6393 66.8936 40.8373 70.9309C40.3001 73.6355 40.4527 76.4378 41.2737 79.12C38.0008 79.5881 34.6981 79.1577 31.6417 77.8529Z" fill="#164094"/>
<path d="M82.8469 57.9011C82.3271 53.5941 80.4934 49.6221 77.5438 46.4147C77.2914 46.14 76.9282 45.9901 76.5583 46.0056C76.1855 46.0206 75.8384 46.1988 75.6089 46.4928C73.8491 48.7473 71.5351 50.4091 68.9173 51.2984C64.474 52.8079 60.6334 55.833 58.1032 59.8163C55.538 63.8547 54.448 68.6984 55.034 73.4548C55.2572 75.2661 55.7128 77.0239 56.39 78.6986C54.7733 79.2239 53.1053 79.5932 51.4183 79.7924C50.7222 79.8747 50.2245 80.5058 50.3067 81.202C50.383 81.8476 50.9313 82.3224 51.5657 82.3224C51.6155 82.3224 51.6657 82.3195 51.7164 82.3135C53.9278 82.0522 56.1094 81.5244 58.2011 80.7563C59.5335 81.0231 60.8888 81.1585 62.2547 81.1585C63.0725 81.1585 63.894 81.1106 64.7163 81.0146C70.1975 80.3743 75.105 77.6235 78.5352 73.2687C81.9836 68.891 83.5147 63.4334 82.8469 57.9011ZM76.541 71.6978C73.5315 75.5183 69.2275 77.9315 64.4218 78.493C63.8665 78.5578 63.312 78.5948 62.7589 78.6099C63.1177 78.4003 63.4732 78.1853 63.8219 77.9601C67.309 75.7084 70.189 72.7896 72.3996 69.2771L76.0485 68.0491C76.7129 67.8254 77.0704 67.1055 76.8467 66.4412C76.6232 65.7769 75.9036 65.4191 75.2388 65.643L74.1833 65.9983C74.9949 64.2406 75.6235 62.4096 76.0594 60.5289C76.2179 59.846 75.7925 59.164 75.1096 59.0057C74.4268 58.8472 73.7447 59.2726 73.5864 59.9555C73.0115 62.4354 72.0683 64.8217 70.7829 67.048C69.6666 68.9814 68.3366 70.728 66.8086 72.2788L66.167 68.3842C66.053 67.6925 65.4018 67.2242 64.7081 67.338C64.0164 67.452 63.548 68.1051 63.662 68.7969L64.5682 74.2971C63.8901 74.8388 63.1833 75.3505 62.4448 75.8274C61.2763 76.5819 60.0428 77.2391 58.7643 77.7965C58.1591 76.3123 57.7519 74.7528 57.5537 73.1445C57.0395 68.9705 57.9956 64.7206 60.2462 61.1777C62.4672 57.6812 65.8367 55.0264 69.734 53.7023C72.3449 52.8153 74.6956 51.282 76.6078 49.2299C78.6502 51.8306 79.9284 54.9061 80.3266 58.2053C80.9128 63.0626 79.5684 67.8543 76.541 71.6978Z" fill="#164094"/>
<path d="M38.2064 26.1208C38.9074 26.1208 39.4758 25.5525 39.4758 24.8514C39.4758 24.1503 38.9074 23.582 38.2064 23.582C37.5053 23.582 36.937 24.1503 36.937 24.8514C36.937 25.5525 37.5053 26.1208 38.2064 26.1208Z" fill="#164094"/>
</g>
<defs>
<clipPath id="clip0_788_120">
<rect width="65" height="65" fill="white" transform="translate(18 18.5)"/>
</clipPath>
</defs>
</svg>
