<svg width="600" height="550" viewBox="0 0 600 550" fill="none" xmlns="http://www.w3.org/2000/svg">
<g opacity="0.05">
<path fill-rule="evenodd" clip-rule="evenodd" d="M211.957 -111.363L251.026 -72.2935L324.457 0.84726V82.9285L298.37 108.456L257.609 149.217V652.495C271.457 654.454 285.61 655.467 300 655.467C465.685 655.467 600 521.152 600 355.467C600 261.48 556.78 177.588 489.13 122.582V178.168C532.611 224.531 559.239 286.889 559.239 355.467C559.239 442.744 516.109 519.948 450 566.928V-42.8795L409.239 -1.85416L365.217 42.1676V-14.9782L171.196 -209V580.494C93.2596 535.787 40.7609 451.758 40.7609 355.467C40.7609 276.355 76.1981 205.519 132.065 157.969V106.839C52.3781 160.768 0 252.001 0 355.467C0 490.515 89.2341 604.721 211.957 642.34V-111.363ZM300 614.706C299.456 614.706 298.913 614.704 298.37 614.701V166.66L409.239 55.7904V590.635C376.042 606.082 339.028 614.706 300 614.706Z" fill="white"/>
<path fill-rule="evenodd" clip-rule="evenodd" d="M451.961 594.494L542.292 594.447L599.992 594.502L538.967 533.477C513.975 558.647 484.55 579.409 451.961 594.494Z" fill="white"/>
</g>
</svg>
