<svg width="75" height="75" viewBox="0 0 75 75" fill="none" xmlns="http://www.w3.org/2000/svg">
<rect width="75" height="75" rx="15" fill="#164094"/>
<g clip-path="url(#clip0_756_221)">
<path d="M53.4191 35.8925C55.524 34.1938 56.7716 32.8111 56.839 32.7358C57.289 32.2332 57.289 31.4726 56.839 30.97C56.7508 30.8715 54.6409 28.5319 51.2297 26.1757C46.662 23.0207 41.9144 21.353 37.5 21.353C33.0856 21.353 28.338 23.0207 23.7703 26.1758C20.3591 28.532 18.2492 30.8717 18.161 30.9701C17.711 31.4726 17.711 32.2332 18.161 32.7359C18.2284 32.8111 19.476 34.1939 21.5809 35.8926C17.3153 37.5526 15 39.8339 15 42.4413C15 44.1835 16.0595 46.7005 21.1069 48.798C23.8316 49.9302 27.322 50.7521 31.1675 51.1832L31.0588 51.2648C30.4741 51.7034 30.3555 52.533 30.7941 53.1177C31.0541 53.4644 31.4516 53.6472 31.854 53.6472C32.1303 53.6472 32.409 53.5609 32.6471 53.3824L35.4706 51.2648C36.0553 50.8262 36.1739 49.9966 35.7353 49.4119L33.6176 46.5883C33.1791 46.0036 32.3496 45.885 31.7647 46.3236C31.18 46.7622 31.0614 47.5918 31.5 48.1766L31.8105 48.5906C23.2253 47.6876 17.6471 44.8516 17.6471 42.4413C17.6471 40.8386 20.1835 39.0429 24.1605 37.7955C28.6078 40.7785 33.2111 42.353 37.5 42.353C41.7889 42.353 46.3922 40.7786 50.8395 37.7955C54.8165 39.0428 57.3529 40.8386 57.3529 42.4413C57.3529 45.116 50.4842 48.3155 40.2589 48.8152C39.5289 48.8509 38.9659 49.4716 39.0016 50.2017C39.0362 50.9098 39.6211 51.4608 40.3225 51.4608C40.3443 51.4608 40.3661 51.4602 40.3881 51.4591C45.5778 51.2055 50.3739 50.2605 53.8931 48.7981C58.9405 46.7005 60 44.1834 60 42.4413C60 39.8339 57.6847 37.5526 53.4191 35.8925ZM53.9983 31.8527C52.6788 33.1271 49.9451 35.5564 46.4148 37.3942C47.4188 35.7848 48 33.8856 48 31.853C48 29.842 47.4312 27.9614 46.4467 26.3629C47.6598 26.998 48.7481 27.6816 49.6719 28.317C51.6135 29.6524 53.119 31.0023 53.9983 31.8527ZM37.5 24.0001C41.8301 24.0001 45.3529 27.5229 45.3529 31.853C45.3529 36.1832 41.8301 39.706 37.5 39.706C33.1699 39.706 29.6471 36.1832 29.6471 31.853C29.6471 27.5229 33.1699 24.0001 37.5 24.0001ZM21.0017 31.8533C22.3212 30.5789 25.0549 28.1495 28.5852 26.3118C27.5812 27.9212 27 29.8204 27 31.853C27 33.8641 27.5688 35.7446 28.5533 37.3431C27.3402 36.7081 26.2519 36.0244 25.3281 35.3891C23.3863 34.0534 21.8809 32.7035 21.0017 31.8533Z" fill="white"/>
<path d="M37.5 36.0002C39.7867 36.0002 41.647 34.1398 41.647 31.8531C41.647 29.5664 39.7867 27.7061 37.5 27.7061C35.2133 27.7061 33.3529 29.5664 33.3529 31.8531C33.3529 34.1398 35.2133 36.0002 37.5 36.0002ZM37.5 30.3531C38.3271 30.3531 39 31.026 39 31.8531C39 32.6802 38.3271 33.3531 37.5 33.3531C36.6728 33.3531 36 32.6802 36 31.8531C36 31.026 36.6728 30.3531 37.5 30.3531Z" fill="white"/>
</g>
<defs>
<clipPath id="clip0_756_221">
<rect width="45" height="45" fill="white" transform="translate(15 15)"/>
</clipPath>
</defs>
</svg>
