<svg width="76" height="75" viewBox="0 0 76 75" fill="none" xmlns="http://www.w3.org/2000/svg">
<rect x="0.5" width="75" height="75" rx="15" fill="#164094"/>
<path d="M31.4177 35.9592C33.0454 35.9592 34.6366 35.4765 35.99 34.5722C37.3434 33.6678 38.3982 32.3825 39.021 30.8786C39.6438 29.3748 39.8067 27.72 39.4891 26.1236C39.1714 24.5271 38.3875 23.0608 37.2364 21.9099C36.0853 20.759 34.6188 19.9753 33.0223 19.658C31.4259 19.3406 29.7711 19.5038 28.2674 20.1269C26.7636 20.75 25.4785 21.805 24.5743 23.1585C23.6702 24.5121 23.1878 26.1033 23.1881 27.731C23.1904 29.9128 24.0582 32.0046 25.6011 33.5472C27.144 35.0898 29.2359 35.9573 31.4177 35.9592ZM31.4177 22.3814C32.4758 22.3814 33.5101 22.6952 34.3898 23.283C35.2695 23.8708 35.9552 24.7063 36.3601 25.6838C36.765 26.6614 36.8709 27.737 36.6645 28.7747C36.4581 29.8124 35.9486 30.7656 35.2004 31.5138C34.4523 32.2619 33.4991 32.7714 32.4614 32.9779C31.4236 33.1843 30.348 33.0783 29.3705 32.6734C28.393 32.2685 27.5575 31.5829 26.9697 30.7031C26.3819 29.8234 26.0681 28.7891 26.0681 27.731C26.0693 26.3126 26.6332 24.9526 27.6362 23.9496C28.6392 22.9466 29.9993 22.3826 31.4177 22.3814Z" fill="white"/>
<path d="M48.8001 36.679C50.0105 36.679 51.1937 36.32 52.2001 35.6476C53.2066 34.9751 53.991 34.0193 54.4542 32.901C54.9174 31.7827 55.0386 30.5522 54.8025 29.365C54.5663 28.1779 53.9834 27.0874 53.1275 26.2315C52.2716 25.3756 51.1812 24.7927 49.994 24.5566C48.8068 24.3204 47.5763 24.4416 46.458 24.9048C45.3397 25.368 44.3839 26.1524 43.7115 27.1589C43.039 28.1653 42.6801 29.3485 42.6801 30.559C42.682 32.1815 43.3274 33.737 44.4747 34.8844C45.622 36.0317 47.1775 36.6771 48.8001 36.679ZM48.8001 27.319C49.4409 27.319 50.0673 27.509 50.6001 27.865C51.1329 28.221 51.5482 28.727 51.7934 29.3191C52.0387 29.9111 52.1028 30.5626 51.9778 31.1911C51.8528 31.8196 51.5442 32.3969 51.0911 32.85C50.638 33.3031 50.0606 33.6117 49.4321 33.7367C48.8036 33.8617 48.1522 33.7976 47.5602 33.5523C46.9681 33.3071 46.4621 32.8918 46.1061 32.359C45.7501 31.8262 45.5601 31.1998 45.5601 30.559C45.5608 29.6999 45.9024 28.8762 46.5099 28.2688C47.1173 27.6613 47.941 27.3197 48.8001 27.319Z" fill="white"/>
<path d="M48.8 38.3639C47.347 38.3683 45.9098 38.6651 44.5738 39.2365C43.2379 39.808 42.0307 40.6425 41.024 41.6903C38.8298 39.8666 36.1615 38.7054 33.3314 38.3428C30.5014 37.9801 27.6266 38.431 25.0434 39.6425C22.4602 40.854 20.2754 42.7762 18.7447 45.184C17.2141 47.5919 16.4008 50.3859 16.4 53.2391C16.4 53.621 16.5517 53.9873 16.8218 54.2573C17.0918 54.5274 17.4581 54.6791 17.84 54.6791H44.9984C45.3803 54.6791 45.7466 54.5274 46.0167 54.2573C46.2867 53.9873 46.4384 53.621 46.4384 53.2391C46.436 52.3553 46.3555 51.4735 46.1979 50.6039H58.16C58.5419 50.6039 58.9082 50.4522 59.1783 50.1821C59.4483 49.9121 59.6 49.5458 59.6 49.1639C59.597 46.3005 58.4581 43.5552 56.4334 41.5305C54.4087 39.5058 51.6634 38.3669 48.8 38.3639ZM19.365 51.7991C19.6891 49.0385 20.9514 46.473 22.9407 44.5318C24.93 42.5905 27.5256 41.3913 30.2932 41.1348C33.0609 40.8783 35.8327 41.58 38.1449 43.1225C40.4571 44.6651 42.1694 46.9549 42.9954 49.6088C43.2255 50.3216 43.3851 51.0552 43.472 51.7991H19.365ZM45.3599 47.7239C44.7964 46.2864 44.0139 44.9448 43.04 43.7466C44.041 42.6782 45.3187 41.9086 46.7312 41.5234C48.1436 41.1382 49.6352 41.1525 51.0399 41.5648C52.4447 41.9771 53.7074 42.7711 54.6876 43.8585C55.6679 44.9459 56.3271 46.284 56.5919 47.7239H45.3599Z" fill="white"/>
</svg>
