<svg width="71" height="71" viewBox="0 0 71 71" fill="none" xmlns="http://www.w3.org/2000/svg">
<rect width="71" height="71" rx="15" fill="#F9F9F9"/>
<g clip-path="url(#clip0_208_1134)">
<path d="M25.0992 27.3199C26.6243 27.5336 28.0223 28.1652 29.1418 29.1465C31.0421 30.8122 33.4866 31.7886 36.0253 31.8962C36.1812 31.9027 36.3367 31.9061 36.4922 31.906C38.9061 31.906 41.276 31.1152 43.2115 29.6555C43.9961 29.0638 44.6919 28.377 45.2906 27.6103C45.9712 28.2231 46.5929 28.9019 47.1403 29.6352C47.2745 29.815 47.4803 29.9099 47.6885 29.9099C47.8307 29.9099 47.9742 29.8657 48.0969 29.7741C48.3994 29.5483 48.4616 29.12 48.2357 28.8175C47.5187 27.857 46.6855 26.982 45.7646 26.2136C45.39 25.105 44.8409 24.0601 44.13 23.1051C42.6712 21.1454 40.6577 19.7507 38.3072 19.0719C36.0335 18.4154 33.5623 18.4996 31.3487 19.3091C30.9942 19.4386 30.8119 19.8312 30.9416 20.1857C31.0712 20.5402 31.4636 20.7226 31.8182 20.5929C33.7612 19.8823 35.931 19.8086 37.9279 20.3853C39.9891 20.9805 41.7545 22.2032 43.0334 23.9214C43.2132 24.1629 43.3796 24.4115 43.5355 24.6653C43.3412 24.5544 43.1452 24.4466 42.9463 24.3445C40.9574 23.3247 38.821 22.7676 36.5879 22.6824L35.0329 21.3114C34.7497 21.0618 34.3178 21.0889 34.0682 21.3721C33.8185 21.6553 33.8457 22.0872 34.1289 22.3368L34.5787 22.7334C33.5405 22.8281 32.5174 23.0279 31.523 23.331C31.1619 23.441 30.9584 23.823 31.0685 24.184C31.1785 24.5451 31.5608 24.7488 31.9215 24.6386C33.2326 24.239 34.5992 24.0364 35.9837 24.0364C37.1858 24.0364 38.3583 24.1864 39.4929 24.4814L37.8495 25.8291C37.5577 26.0685 37.5151 26.4992 37.7545 26.7911C37.8897 26.9559 38.0857 27.0412 38.2834 27.0412C38.4358 27.0412 38.5893 26.9904 38.7164 26.8862L41.0373 24.9828C41.4725 25.1532 41.9014 25.345 42.3226 25.561C42.989 25.9027 43.6275 26.301 44.2317 26.7471C43.7025 27.4289 43.0849 28.0386 42.3882 28.5641C40.5803 29.9277 38.3408 30.6259 36.083 30.5304C33.8546 30.4361 31.7095 29.5795 30.0428 28.1186C28.9263 27.14 27.5783 26.4567 26.1066 26.1174C26.4074 25.3684 26.7979 24.6626 27.2724 24.0116C27.4946 23.7065 27.4276 23.2789 27.1225 23.0567C26.8175 22.8345 26.3898 22.9014 26.1675 23.2066C25.4539 24.186 24.9069 25.2735 24.5417 26.4388C24.4817 26.6305 24.509 26.8388 24.6164 27.0085C24.7238 27.1781 24.9003 27.292 25.0992 27.3199Z" fill="#164094"/>
<path d="M31.638 46.4985C32.1303 44.02 31.7537 41.4146 30.5774 39.1623C29.3849 36.8788 27.4196 35.0665 25.0438 34.0592C24.1391 33.6756 23.1967 33.4148 22.2334 33.2797C22.4237 32.3844 22.7007 31.5072 23.0619 30.6669C23.2109 30.3201 23.0506 29.9181 22.7038 29.769C22.3567 29.6199 21.955 29.7803 21.8059 30.1271C21.3326 31.2283 20.9914 32.3874 20.7865 33.5692C20.0137 34.4478 19.3833 35.4459 18.9117 36.539C17.7346 39.2673 17.6961 42.2965 18.8033 45.0685C19.9163 47.8551 22.049 50.0385 24.8088 51.2167C26.1957 51.8088 27.6645 52.1079 29.1478 52.1079C29.9622 52.1079 30.7812 52.0177 31.5928 51.8362C31.7888 51.7924 31.9557 51.6646 32.0489 51.4867C32.1423 51.3089 32.1527 51.099 32.0773 50.9128C31.4999 49.485 31.3479 47.9586 31.638 46.4985ZM25.3455 49.9593C22.9226 48.9249 21.05 47.0079 20.0729 44.5613C19.1015 42.1293 19.1349 39.4726 20.1669 37.0804C20.2862 36.804 20.4182 36.5355 20.5601 36.2736C20.5613 36.4973 20.5658 36.721 20.577 36.9443C20.6882 39.1766 21.2739 41.3054 22.3168 43.2819L21.907 45.3141C21.8324 45.6842 22.0719 46.0447 22.4419 46.1192C22.4875 46.1284 22.533 46.1328 22.5777 46.1328C22.8964 46.1328 23.1816 45.9087 23.247 45.5843L23.3655 44.9965C23.9667 45.8482 24.6513 46.6344 25.4109 47.344C25.5427 47.4671 25.7102 47.528 25.8773 47.528C26.0601 47.528 26.2424 47.4551 26.3769 47.311C26.6347 47.0351 26.6199 46.6026 26.3441 46.3449C25.3426 45.4093 24.4838 44.3271 23.7915 43.1281C23.1904 42.0871 22.734 40.9966 22.4222 39.8666L24.4111 40.6159C24.4905 40.6458 24.5719 40.66 24.6519 40.66C24.9282 40.66 25.1885 40.4912 25.2916 40.2173C25.4247 39.864 25.2463 39.4697 24.893 39.3366L22.0842 38.2784C22.0141 37.8163 21.9658 37.3489 21.9422 36.8761C21.9049 36.1282 21.9306 35.376 22.0149 34.6298C22.8699 34.7471 23.7068 34.9771 24.5101 35.3177C26.595 36.2016 28.3193 37.7917 29.3656 39.7951C30.3981 41.7721 30.7289 44.0581 30.297 46.232C30.0077 47.6884 30.0899 49.1973 30.532 50.6415C28.7696 50.8936 26.9913 50.6618 25.3455 49.9593Z" fill="#164094"/>
<path d="M52.9175 39.2159C52.6376 36.8967 51.6502 34.758 50.062 33.0309C49.9261 32.883 49.7305 32.8023 49.5314 32.8106C49.3306 32.8187 49.1437 32.9147 49.0202 33.073C48.0725 34.287 46.8266 35.1817 45.417 35.6606C43.0244 36.4734 40.9564 38.1023 39.594 40.2472C38.2127 42.4217 37.6258 45.0298 37.9414 47.591C38.0615 48.5663 38.3068 49.5128 38.6715 50.4146C37.801 50.6974 36.9028 50.8962 35.9944 51.0036C35.6196 51.0478 35.3516 51.3877 35.3959 51.7625C35.437 52.1102 35.7322 52.3659 36.0738 52.3659C36.1006 52.3659 36.1277 52.3643 36.1549 52.3611C37.3457 52.2203 38.5204 51.9361 39.6467 51.5225C40.3641 51.6662 41.0939 51.7391 41.8294 51.7391C42.2698 51.7391 42.7121 51.7133 43.1549 51.6616C46.1063 51.3169 48.7488 49.8356 50.5959 47.4908C52.4527 45.1336 53.2771 42.1948 52.9175 39.2159ZM49.5221 46.6449C47.9015 48.7021 45.584 50.0015 42.9963 50.3038C42.6973 50.3388 42.3987 50.3587 42.1009 50.3668C42.2941 50.254 42.4855 50.1382 42.6733 50.0169C44.551 48.8044 46.1017 47.2328 47.292 45.3414L49.2569 44.6802C49.6146 44.5598 49.8071 44.1721 49.6867 43.8144C49.5663 43.4567 49.1788 43.264 48.8208 43.3846L48.2525 43.5759C48.6895 42.6295 49.028 41.6436 49.2627 40.6309C49.348 40.2632 49.119 39.8959 48.7513 39.8107C48.3836 39.7254 48.0164 39.9544 47.9311 40.3221C47.6216 41.6574 47.1136 42.9424 46.4215 44.1412C45.8204 45.1822 45.1043 46.1227 44.2815 46.9577L43.936 44.8606C43.8746 44.4882 43.524 44.2361 43.1505 44.2973C42.778 44.3587 42.5258 44.7103 42.5872 45.0829L43.0751 48.0445C42.71 48.3362 42.3294 48.6117 41.9318 48.8685C41.3026 49.2748 40.6384 49.6287 39.95 49.9288C39.6241 49.1296 39.4048 48.2899 39.2981 47.4239C39.0212 45.1764 39.5361 42.888 40.7479 40.9802C41.9439 39.0975 43.7582 37.668 45.8567 36.955C47.2626 36.4774 48.5284 35.6518 49.558 34.5468C50.6578 35.9472 51.346 37.6032 51.5604 39.3797C51.8761 41.9952 51.1522 44.5754 49.5221 46.6449Z" fill="#164094"/>
<path d="M28.8803 22.1035C29.2578 22.1035 29.5638 21.7975 29.5638 21.42C29.5638 21.0425 29.2578 20.7365 28.8803 20.7365C28.5028 20.7365 28.1968 21.0425 28.1968 21.42C28.1968 21.7975 28.5028 22.1035 28.8803 22.1035Z" fill="#164094"/>
</g>
<defs>
<clipPath id="clip0_208_1134">
<rect width="35" height="35" fill="white" transform="translate(18 18)"/>
</clipPath>
</defs>
</svg>
