<svg width="41" height="41" viewBox="0 0 41 41" fill="none" xmlns="http://www.w3.org/2000/svg">
<path d="M20.7806 21.9409C23.1849 21.9409 25.1409 19.9849 25.1409 17.5807C25.1409 15.1765 23.1849 13.2205 20.7806 13.2205C18.3764 13.2205 16.4204 15.1765 16.4204 17.5807C16.4204 19.9849 18.3764 21.9409 20.7806 21.9409ZM20.7806 16.1273C21.582 16.1273 22.234 16.7793 22.234 17.5807C22.234 18.3821 21.582 19.0341 20.7806 19.0341C19.9792 19.0341 19.3272 18.3821 19.3272 17.5807C19.3272 16.7793 19.9792 16.1273 20.7806 16.1273Z" fill="white"/>
<path d="M33.8613 17.5807C33.8613 10.368 27.9933 4.5 20.7806 4.5C13.5679 4.5 7.69995 10.368 7.69995 17.5807C7.69995 20.4341 8.60266 23.1459 10.3106 25.4228L17.2911 34.7295C18.1111 35.8225 19.4156 36.475 20.7806 36.475C22.1457 36.475 23.4502 35.8225 24.2702 34.7294L31.2507 25.4228C32.9586 23.1459 33.8613 20.4341 33.8613 17.5807ZM28.9253 23.6786L21.9449 32.9851C21.6668 33.3557 21.2425 33.5682 20.7806 33.5682C20.3187 33.5682 19.8944 33.3557 19.6165 32.9852L12.6359 23.6786C11.3085 21.9088 10.6068 19.8001 10.6068 17.5807C10.6068 11.9708 15.1708 7.40682 20.7806 7.40682C26.3905 7.40682 30.9545 11.9708 30.9545 17.5807C30.9545 19.8001 30.2528 21.9088 28.9253 23.6786Z" fill="white"/>
</svg>
