<svg width="30" height="30" viewBox="0 0 30 30" fill="none" xmlns="http://www.w3.org/2000/svg">
<path d="M15.2106 16.0807C17.0138 16.0807 18.4808 14.6137 18.4808 12.8105C18.4808 11.0073 17.0138 9.54034 15.2106 9.54034C13.4074 9.54034 11.9404 11.0073 11.9404 12.8105C11.9404 14.6137 13.4074 16.0807 15.2106 16.0807ZM15.2106 11.7205C15.8117 11.7205 16.3007 12.2095 16.3007 12.8105C16.3007 13.4116 15.8117 13.9006 15.2106 13.9006C14.6095 13.9006 14.1205 13.4116 14.1205 12.8105C14.1205 12.2095 14.6095 11.7205 15.2106 11.7205Z" fill="white"/>
<path d="M25.0209 12.8105C25.0209 7.401 20.6199 3 15.2104 3C9.8009 3 5.3999 7.401 5.3999 12.8105C5.3999 14.9506 6.07694 16.9844 7.35786 18.6921L12.5933 25.6721C13.2083 26.4919 14.1866 26.9813 15.2104 26.9813C16.2342 26.9813 17.2126 26.4919 17.8276 25.672L23.063 18.6921C24.3439 16.9844 25.0209 14.9506 25.0209 12.8105ZM21.3189 17.384L16.0836 24.3638C15.8751 24.6418 15.5568 24.8011 15.2104 24.8011C14.864 24.8011 14.5458 24.6418 14.3373 24.3639L9.1019 17.384C8.1063 16.0566 7.58002 14.4751 7.58002 12.8105C7.58002 8.60311 11.003 5.18011 15.2104 5.18011C19.4178 5.18011 22.8408 8.60311 22.8408 12.8105C22.8408 14.4751 22.3145 16.0566 21.3189 17.384Z" fill="white"/>
</svg>
