<svg width="105" height="55" viewBox="0 0 105 55" fill="none" xmlns="http://www.w3.org/2000/svg">
<path d="M62.5316 32.7273L59.8319 29.5156C61.1818 28.1192 61.9731 26.1409 61.9731 23.8601C61.9731 19.1822 58.6915 15.9006 53.967 15.9006C49.2425 15.9006 45.9609 19.1822 45.9609 23.8601C45.9609 28.5381 49.2425 31.8196 53.967 31.8196C55.3867 31.8196 56.69 31.5171 57.8071 30.9818L59.2733 32.7273H62.5316ZM53.967 29.3759C50.8018 29.3759 48.6839 27.1417 48.6839 23.8601C48.6839 20.5786 50.8018 18.3443 53.967 18.3443C57.1322 18.3443 59.2501 20.5786 59.2501 23.8601C59.2501 25.3031 58.8311 26.5366 58.1097 27.4675L56.178 25.1634H52.943L56.1314 28.9803C55.4798 29.2363 54.7583 29.3759 53.967 29.3759Z" fill="white"/>
<path d="M64.591 31.5404H67.1045V21.463H64.591V31.5404Z" fill="white"/>
<path d="M70.0911 31.5404H72.6047V25.7918C73.0934 24.4187 74.0243 23.767 75.3509 23.767C75.5837 23.767 75.8629 23.7903 76.1189 23.8368V21.2535C75.9328 21.2069 75.7 21.1837 75.4207 21.1837C74.0243 21.1837 73.0236 21.8121 72.3254 23.2085L71.953 21.463H70.0911V31.5404Z" fill="white"/>
<path d="M77.8414 31.5404H80.3549V21.463H77.8414V31.5404Z" fill="white"/>
<path d="M83.3415 31.5404H85.8551V25.1634C86.3671 24.1161 87.1118 23.5343 88.0893 23.5343C89.1133 23.5343 89.7185 24.1627 89.7185 25.5125V31.5404H92.232V25.0005C92.744 24.0463 93.512 23.5343 94.4197 23.5343C95.4903 23.5343 96.0954 24.1859 96.0954 25.5125V31.5404H98.6089V25.21C98.6089 22.5568 97.422 21.1837 95.1644 21.1837C93.8146 21.1837 92.6975 21.6957 91.8131 22.9525C91.2778 21.7888 90.2537 21.1837 88.8108 21.1837C87.3911 21.1837 86.3438 21.7422 85.506 22.9059L85.2034 21.463H83.3415V31.5404Z" fill="white"/>
<path d="M46.2747 54.682H58.0743V52.2848H48.9278V48.0025H56.7012V45.6286H48.9278V41.7187H57.8183V39.3215H46.2747V54.682Z" fill="white"/>
<path d="M60.5158 54.682H63.0293V48.3051C63.5414 47.2578 64.2861 46.6759 65.2636 46.6759C66.2876 46.6759 66.8927 47.3043 66.8927 48.6542V54.682H69.4063V48.1421C69.9183 47.1879 70.6863 46.6759 71.594 46.6759C72.6645 46.6759 73.2697 47.3276 73.2697 48.6542V54.682H75.7832V48.3516C75.7832 45.6984 74.5962 44.3253 72.3387 44.3253C70.9889 44.3253 69.8717 44.8373 68.9873 46.0941C68.4521 44.9304 67.428 44.3253 65.9851 44.3253C64.5654 44.3253 63.5181 44.8839 62.6802 46.0475L62.3777 44.6046H60.5158V54.682Z" fill="white"/>
<path d="M78.6073 54.682H81.1208V38.1578H78.6073V54.682Z" fill="white"/>
<path d="M86.7141 54.9613C88.157 54.9613 89.3672 54.4027 90.1585 53.4019L90.5076 54.682H92.3695V48.5611C92.3695 45.745 90.8335 44.3253 87.8312 44.3253C86.3417 44.3253 85.0384 44.6977 84.1074 45.3959V47.6767C85.0151 46.8854 86.1322 46.4665 87.4355 46.4665C89.1345 46.4665 89.856 47.1647 89.856 48.7938V49.0498C88.925 48.6542 87.9708 48.4447 87.0399 48.4447C84.666 48.4447 83.2463 49.7015 83.2463 51.7728C83.2463 53.7278 84.5496 54.9613 86.7141 54.9613ZM87.3657 52.9597C86.2486 52.9597 85.69 52.471 85.69 51.6099C85.69 50.7488 86.2951 50.26 87.5519 50.26C88.3897 50.26 89.1578 50.4695 89.856 50.8419V51.5633C89.2276 52.4943 88.413 52.9597 87.3657 52.9597Z" fill="white"/>
<path d="M95.1078 54.682H97.6213V50.1902L101.275 54.682H104.487L100.088 49.3524L104.417 44.6046H101.299L97.6213 48.724V38.1578H95.1078V54.682Z" fill="white"/>
<path fill-rule="evenodd" clip-rule="evenodd" d="M13.4853 6.21196L15.971 8.69768L20.6429 13.3511V18.5734L18.9832 20.1975L16.3898 22.7908V54.8109C17.2709 54.9355 18.1714 55 19.0869 55C29.6283 55 38.1738 46.4545 38.1738 35.9131C38.1738 29.9334 35.424 24.5959 31.12 21.0962V24.6328C33.8863 27.5826 35.5805 31.55 35.5805 35.9131C35.5805 41.4659 32.8364 46.3779 28.6304 49.3669V10.5691L26.037 13.1792L23.2362 15.98V12.3443L10.892 0V50.23C5.93346 47.3856 2.59333 42.0394 2.59333 35.9131C2.59333 30.8797 4.84796 26.373 8.40239 23.3477V20.0946C3.33245 23.5258 0 29.3303 0 35.9131C0 44.5052 5.67734 51.7714 13.4853 54.1648V6.21196ZM19.0869 52.4067C19.0523 52.4067 19.0177 52.4066 18.9832 52.4063V23.9006L26.037 16.8468V50.8752C23.9249 51.858 21.57 52.4067 19.0869 52.4067Z" fill="white"/>
<path fill-rule="evenodd" clip-rule="evenodd" d="M28.7551 54.9855L34.5021 54.9825L38.1732 54.986L34.2906 51.1034C32.7006 52.7048 30.8285 54.0257 28.7551 54.9855Z" fill="white"/>
</svg>
