<svg width="133" height="70" viewBox="0 0 133 70" fill="none" xmlns="http://www.w3.org/2000/svg">
<path d="M79.5858 41.6529L76.1498 37.5653C77.8678 35.788 78.8749 33.2702 78.8749 30.3674C78.8749 24.4136 74.6984 20.2371 68.6854 20.2371C62.6724 20.2371 58.4958 24.4136 58.4958 30.3674C58.4958 36.3212 62.6724 40.4977 68.6854 40.4977C70.4922 40.4977 72.151 40.1126 73.5728 39.4314L75.4389 41.6529H79.5858ZM68.6854 37.3875C64.657 37.3875 61.9615 34.5439 61.9615 30.3674C61.9615 26.1909 64.657 23.3473 68.6854 23.3473C72.7138 23.3473 75.4093 26.1909 75.4093 30.3674C75.4093 32.2039 74.8761 33.7738 73.9579 34.9586L71.4994 32.0262H67.3821L71.4401 36.884C70.6107 37.2098 69.6925 37.3875 68.6854 37.3875Z" fill="white"/>
<path d="M82.2068 40.1423H85.4058V27.3165H82.2068V40.1423Z" fill="white"/>
<path d="M89.207 40.1423H92.406V32.8259C93.0281 31.0783 94.2129 30.2489 95.9013 30.2489C96.1975 30.2489 96.5529 30.2786 96.8788 30.3378V27.0499C96.6418 26.9907 96.3456 26.961 95.9902 26.961C94.2129 26.961 92.9392 27.7608 92.0506 29.538L91.5767 27.3165H89.207V40.1423Z" fill="white"/>
<path d="M99.0709 40.1423H102.27V27.3165H99.0709V40.1423Z" fill="white"/>
<path d="M106.071 40.1423H109.27V32.0262C109.922 30.6932 110.87 29.9527 112.114 29.9527C113.417 29.9527 114.187 30.7525 114.187 32.4705V40.1423H117.386V31.8188C118.038 30.6044 119.015 29.9527 120.171 29.9527C121.533 29.9527 122.303 30.7821 122.303 32.4705V40.1423H125.502V32.0854C125.502 28.7087 123.992 26.961 121.118 26.961C119.4 26.961 117.979 27.6127 116.853 29.2122C116.172 27.7312 114.869 26.961 113.032 26.961C111.225 26.961 109.892 27.6719 108.826 29.153L108.441 27.3165H106.071V40.1423Z" fill="white"/>
<path d="M58.895 69.5952H73.9127V66.5443H62.2718V61.0941H72.1651V58.0728H62.2718V53.0965H73.5869V50.0456H58.895V69.5952Z" fill="white"/>
<path d="M77.0201 69.5952H80.2192V61.4792C80.8708 60.1462 81.8187 59.4057 83.0628 59.4057C84.3661 59.4057 85.1362 60.2055 85.1362 61.9235V69.5952H88.3352V61.2718C88.9869 60.0574 89.9644 59.4057 91.1196 59.4057C92.4822 59.4057 93.2523 60.2351 93.2523 61.9235V69.5952H96.4513V61.5384C96.4513 58.1616 94.9407 56.414 92.0675 56.414C90.3495 56.414 88.9277 57.0657 87.8021 58.6652C87.1208 57.1842 85.8175 56.414 83.981 56.414C82.1741 56.414 80.8412 57.1249 79.7749 58.6059L79.3898 56.7695H77.0201V69.5952Z" fill="white"/>
<path d="M100.046 69.5952H103.245V48.5645H100.046V69.5952Z" fill="white"/>
<path d="M110.363 69.9507C112.2 69.9507 113.74 69.2398 114.747 67.9661L115.192 69.5952H117.561V61.805C117.561 58.2209 115.606 56.414 111.785 56.414C109.889 56.414 108.231 56.8879 107.046 57.7766V60.6794C108.201 59.6723 109.623 59.1391 111.282 59.1391C113.444 59.1391 114.362 60.0277 114.362 62.1012V62.427C113.177 61.9235 111.963 61.6569 110.778 61.6569C107.757 61.6569 105.95 63.2564 105.95 65.8926C105.95 68.3808 107.609 69.9507 110.363 69.9507ZM111.193 67.4033C109.771 67.4033 109.06 66.7813 109.06 65.6853C109.06 64.5893 109.83 63.9673 111.43 63.9673C112.496 63.9673 113.474 64.2339 114.362 64.7078V65.6261C113.562 66.8109 112.526 67.4033 111.193 67.4033Z" fill="white"/>
<path d="M121.046 69.5952H124.245V63.8784L128.896 69.5952H132.983L127.385 62.8121L132.895 56.7695H128.925L124.245 62.0123V48.5645H121.046V69.5952Z" fill="white"/>
<path fill-rule="evenodd" clip-rule="evenodd" d="M17.1631 7.90613L20.3268 11.0698L26.2728 16.9923V23.6388L24.1604 25.7059L20.8598 29.0065V69.7594C21.9812 69.918 23.1272 70 24.2924 70C37.7088 70 48.5849 59.1239 48.5849 45.7076C48.5849 38.097 45.0851 31.3039 39.6072 26.8498V31.3508C43.1281 35.1051 45.2843 40.1545 45.2843 45.7076C45.2843 52.7748 41.7918 59.0264 36.4386 62.8306V13.4516L33.138 16.7736L29.5734 20.3382V15.7109L13.8625 0V63.9291C7.55167 60.309 3.3006 53.5047 3.3006 45.7076C3.3006 39.3015 6.17013 33.5656 10.6939 29.7152V25.575C4.24131 29.9419 0 37.3294 0 45.7076C0 56.643 7.22571 65.8909 17.1631 68.937V7.90613ZM24.2924 66.6994C24.2484 66.6994 24.2044 66.6993 24.1604 66.699V30.419L33.138 21.4413V64.7502C30.4499 66.001 27.4527 66.6994 24.2924 66.6994Z" fill="white"/>
<path fill-rule="evenodd" clip-rule="evenodd" d="M36.5974 69.9816L43.9119 69.9777L48.5842 69.9822L43.6426 65.0407C41.6189 67.0788 39.2363 68.76 36.5974 69.9816Z" fill="white"/>
</svg>
