<svg width="71" height="71" viewBox="0 0 71 71" fill="none" xmlns="http://www.w3.org/2000/svg">
<rect width="71" height="71" rx="15" fill="#F9F9F9"/>
<g clip-path="url(#clip0_208_1078)">
<path d="M41.333 21.7849C41.5135 21.7849 41.6898 21.7118 41.817 21.5846C41.9441 21.4575 42.0166 21.2811 42.0166 21.1013C42.0166 20.9208 41.9441 20.7452 41.817 20.618C41.6898 20.4909 41.5135 20.4177 41.333 20.4177C41.1532 20.4177 40.9769 20.4909 40.8497 20.618C40.7226 20.7452 40.6494 20.9208 40.6494 21.1013C40.6494 21.2811 40.7225 21.4575 40.8497 21.5846C40.9769 21.7118 41.1532 21.7849 41.333 21.7849Z" fill="#164094"/>
<path d="M35.5 33.0863C35.8775 33.0863 36.1836 32.7803 36.1836 32.4028V31.7533C37.4523 31.4403 38.2659 30.3605 38.4449 29.2958C38.6768 27.9164 37.9558 26.7172 36.608 26.2408C36.4683 26.1915 36.326 26.1401 36.1836 26.0871V23.4369C36.539 23.5558 36.7721 23.7216 36.7831 23.7297C37.0838 23.9545 37.5101 23.8947 37.7373 23.5949C37.9652 23.294 37.9062 22.8652 37.6052 22.6372C37.5692 22.61 37.0097 22.195 36.1835 22.0231V21.4657C36.1835 21.0881 35.8774 20.7821 35.4999 20.7821C35.1225 20.7821 34.8164 21.0881 34.8164 21.4657V22.0185C34.7278 22.0371 34.6383 22.0591 34.5477 22.0863C33.6569 22.354 32.9912 23.115 32.8104 24.0725C32.6449 24.9489 32.9272 25.7953 33.5471 26.2815C33.8691 26.5341 34.2688 26.7648 34.8163 27.0081V30.4607C34.363 30.4234 34.0684 30.3076 33.5718 29.9827C33.2558 29.776 32.8322 29.8646 32.6255 30.1805C32.4189 30.4964 32.5073 30.92 32.8234 31.1267C33.6013 31.6357 34.1342 31.7904 34.8163 31.831V32.4028C34.8164 32.7803 35.1225 33.0863 35.5 33.0863ZM37.0967 29.0691C37.0162 29.5477 36.7065 30.0536 36.1836 30.3085V27.5416C37.2041 27.9209 37.141 28.8049 37.0967 29.0691ZM34.391 25.2057C34.1776 25.0385 34.0846 24.6931 34.1539 24.3261C34.2149 24.0029 34.4209 23.6182 34.8164 23.4427V25.4835C34.6574 25.3941 34.5132 25.3017 34.391 25.2057Z" fill="#164094"/>
<path d="M44.2547 48.3859C43.6353 48.3859 43.0344 48.5293 42.4895 48.8042C41.774 48.1491 40.9819 47.6049 40.1342 47.1802C41.2847 46.7971 42.3506 46.1515 43.2327 45.2694C45.2279 43.2742 46.0146 40.3396 45.2858 37.6105C45.2227 37.3741 45.0381 37.1896 44.8018 37.1265C42.0724 36.3977 39.1379 37.1845 37.1428 39.1795C36.783 39.5394 36.4631 39.9301 36.1837 40.3444V35.8366C38.2383 35.6803 40.2488 34.8186 41.8167 33.2507C43.1098 31.9576 43.965 30.3262 44.2897 28.5329C44.6067 26.7815 44.4006 24.9962 43.6936 23.3699C43.5431 23.0237 43.1404 22.8651 42.7942 23.0155C42.448 23.166 42.2893 23.5687 42.4398 23.915C43.6876 26.7853 43.0635 30.0704 40.8499 32.284C39.3748 33.7592 37.4378 34.4966 35.5001 34.4965C33.5628 34.4963 31.625 33.7588 30.1502 32.284C27.2002 29.3342 27.2002 24.5343 30.1502 21.5844C32.3638 19.3708 35.6489 18.7468 38.5194 19.9946C38.8657 20.1452 39.2683 19.9866 39.4188 19.6403C39.5693 19.294 39.4107 18.8914 39.0645 18.7408C37.438 18.0338 35.6526 17.8277 33.9014 18.1448C32.1081 18.4695 30.4766 19.3245 29.1834 20.6177C25.7005 24.1007 25.7005 29.7679 29.1834 33.2509C30.7513 34.8187 32.7618 35.6804 34.8164 35.8367V40.3445C34.537 39.9302 34.2171 39.5394 33.8573 39.1796C31.8622 37.1844 28.9275 36.3977 26.1983 37.1266C25.962 37.1897 25.7774 37.3742 25.7143 37.6106C24.9855 40.3397 25.7723 43.2743 27.7674 45.2695C28.6495 46.1516 29.7154 46.7971 30.8659 47.1803C30.0181 47.605 29.2261 48.1492 28.5106 48.8043C27.9656 48.5294 27.3648 48.386 26.7455 48.386C24.5781 48.386 22.8149 50.1492 22.8149 52.3165C22.8149 52.6939 23.121 53 23.4985 53H47.5015C47.879 53 48.1851 52.6939 48.1851 52.3165C48.1852 50.1491 46.422 48.3859 44.2547 48.3859ZM38.1095 40.1463C39.6655 38.5901 41.9123 37.9224 44.0568 38.3555C44.4899 40.4999 43.822 42.7467 42.266 44.3027C40.9154 45.6535 39.0445 46.3343 37.1715 46.2075L40.1213 43.2578C40.3882 42.9908 40.3882 42.558 40.1213 42.291C39.8543 42.0241 39.4216 42.0241 39.1545 42.291L36.2047 45.2407C36.0779 43.3679 36.7589 41.4968 38.1095 40.1463ZM26.9434 38.3555C29.0877 37.9226 31.3348 38.5904 32.8907 40.1463C34.2413 41.4969 34.9222 43.3679 34.7954 45.2407L31.8457 42.291C31.5787 42.0241 31.146 42.0241 30.8789 42.291C30.612 42.5579 30.612 42.9908 30.8789 43.2578L33.8289 46.2077C33.6809 46.2177 33.533 46.2231 33.3853 46.2231C31.6637 46.2229 29.9781 45.5466 28.7342 44.3027C27.1781 42.7467 26.5102 40.4999 26.9434 38.3555ZM24.2747 51.6328C24.5747 50.5501 25.5688 49.753 26.7455 49.753C27.275 49.753 27.7835 49.9137 28.2162 50.2176C28.4894 50.4095 28.8612 50.376 29.0956 50.1384C30.8007 48.4108 33.0752 47.4594 35.5001 47.4594C37.9249 47.4594 40.1995 48.4108 41.9045 50.1384C42.1391 50.3761 42.5107 50.4095 42.7839 50.2176C43.2166 49.9137 43.7252 49.753 44.2546 49.753C45.4314 49.753 46.4255 50.5501 46.7254 51.6328H24.2747Z" fill="#164094"/>
</g>
<defs>
<clipPath id="clip0_208_1078">
<rect width="35" height="35" fill="white" transform="translate(18 18)"/>
</clipPath>
</defs>
</svg>
