<svg width="49" height="70" viewBox="0 0 49 70" fill="none" xmlns="http://www.w3.org/2000/svg">
<path fill-rule="evenodd" clip-rule="evenodd" d="M17.1631 7.90613L20.3268 11.0698L26.2728 16.9923V23.6388L24.1604 25.7059L20.8598 29.0065V69.7594C21.9812 69.918 23.1272 70 24.2924 70C37.7088 70 48.5849 59.1239 48.5849 45.7076C48.5849 38.097 45.0851 31.3039 39.6072 26.8498V31.3508C43.1281 35.1051 45.2843 40.1545 45.2843 45.7076C45.2843 52.7748 41.7918 59.0264 36.4386 62.8306V13.4516L33.138 16.7736L29.5734 20.3382V15.7109L13.8625 0V63.9291C7.55167 60.309 3.3006 53.5047 3.3006 45.7076C3.3006 39.3015 6.17013 33.5656 10.6939 29.7152V25.575C4.24131 29.9419 0 37.3294 0 45.7076C0 56.643 7.22571 65.8909 17.1631 68.937V7.90613ZM24.2924 66.6994C24.2484 66.6994 24.2044 66.6993 24.1604 66.699V30.419L33.138 21.4413V64.7502C30.4499 66.001 27.4527 66.6994 24.2924 66.6994Z" fill="white"/>
<path fill-rule="evenodd" clip-rule="evenodd" d="M36.5974 69.9816L43.9119 69.9778L48.5842 69.9823L43.6426 65.0408C41.6189 67.0789 39.2363 68.7601 36.5974 69.9816Z" fill="white"/>
</svg>
