<svg width="49" height="71" viewBox="0 0 49 71" fill="none" xmlns="http://www.w3.org/2000/svg">
<path fill-rule="evenodd" clip-rule="evenodd" d="M17.1631 8.40613L20.3268 11.5698L26.2728 17.4923V24.1388L24.1604 26.2059L20.8598 29.5065V70.2594C21.9812 70.418 23.1272 70.5 24.2924 70.5C37.7088 70.5 48.5849 59.6239 48.5849 46.2076C48.5849 38.597 45.0851 31.8039 39.6072 27.3498V31.8508C43.1281 35.6051 45.2843 40.6545 45.2843 46.2076C45.2843 53.2748 41.7918 59.5264 36.4386 63.3306V13.9516L33.138 17.2736L29.5734 20.8382V16.2109L13.8625 0.5V64.4291C7.55167 60.809 3.3006 54.0047 3.3006 46.2076C3.3006 39.8015 6.17013 34.0656 10.6939 30.2152V26.075C4.24131 30.4419 0 37.8294 0 46.2076C0 57.143 7.22571 66.3909 17.1631 69.437V8.40613ZM24.2924 67.1994C24.2484 67.1994 24.2044 67.1993 24.1604 67.199V30.919L33.138 21.9413V65.2502C30.4499 66.501 27.4527 67.1994 24.2924 67.1994Z" fill="white"/>
<path fill-rule="evenodd" clip-rule="evenodd" d="M36.5974 70.4816L43.9119 70.4778L48.5842 70.4823L43.6426 65.5408C41.6189 67.5789 39.2363 69.2601 36.5974 70.4816Z" fill="white"/>
</svg>
