<svg width="45" height="39" viewBox="0 0 45 39" fill="none" xmlns="http://www.w3.org/2000/svg">
<path d="M25.8827 23.7812L27.6327 22.0313C27.8684 21.7985 28.1666 21.6391 28.4912 21.5726C28.8157 21.506 29.1525 21.5351 29.4608 21.6563L31.5937 22.5078C31.9052 22.6343 32.1724 22.8501 32.3615 23.1282C32.5505 23.4063 32.6531 23.7341 32.6562 24.0703V27.9766C32.6543 28.2053 32.6063 28.4313 32.5148 28.641C32.4233 28.8506 32.2904 29.0396 32.124 29.1965C31.9576 29.3535 31.7611 29.4751 31.5464 29.5541C31.3318 29.6331 31.1034 29.6679 30.8749 29.6562C15.9296 28.7266 12.914 16.0703 12.3437 11.2266C12.3172 10.9887 12.3414 10.7479 12.4146 10.5201C12.4879 10.2922 12.6086 10.0825 12.7687 9.90464C12.9289 9.72678 13.1248 9.58485 13.3438 9.48818C13.5627 9.3915 13.7996 9.34228 14.039 9.34375H17.8124C18.1491 9.34475 18.4779 9.44646 18.7563 9.63581C19.0348 9.82515 19.2502 10.0935 19.3749 10.4063L20.2265 12.5391C20.3517 12.8461 20.3836 13.1833 20.3183 13.5084C20.253 13.8336 20.0933 14.1323 19.8593 14.3672L18.1093 16.1172C18.1093 16.1172 19.1171 22.9375 25.8827 23.7812Z" fill="white"/>
</svg>
