<svg width="25" height="26" viewBox="0 0 25 26" fill="none" xmlns="http://www.w3.org/2000/svg">
<path d="M15.8828 17.2812L17.6328 15.5313C17.8685 15.2985 18.1668 15.1391 18.4913 15.0726C18.8158 15.006 19.1527 15.0351 19.461 15.1563L21.5938 16.0078C21.9053 16.1343 22.1725 16.3501 22.3616 16.6282C22.5507 16.9063 22.6532 17.2341 22.6563 17.5703V21.4766C22.6545 21.7053 22.6064 21.9313 22.5149 22.141C22.4235 22.3506 22.2905 22.5396 22.1241 22.6965C21.9577 22.8535 21.7612 22.9751 21.5466 23.0541C21.3319 23.1331 21.1035 23.1679 20.875 23.1562C5.92972 22.2266 2.91409 9.57031 2.34378 4.72656C2.3173 4.4887 2.34149 4.24793 2.41475 4.02009C2.48801 3.79224 2.60869 3.5825 2.76883 3.40464C2.92898 3.22678 3.12496 3.08485 3.3439 2.98818C3.56284 2.8915 3.79976 2.84228 4.03909 2.84375H7.81253C8.14925 2.84475 8.47798 2.94646 8.75643 3.13581C9.03488 3.32515 9.25032 3.59347 9.37503 3.90625L10.2266 6.03906C10.3518 6.34615 10.3837 6.68332 10.3184 7.00845C10.2531 7.33358 10.0935 7.63226 9.8594 7.86719L8.1094 9.61719C8.1094 9.61719 9.11722 16.4375 15.8828 17.2812Z" fill="white"/>
</svg>
