<svg width="25" height="25" viewBox="0 0 25 25" fill="none" xmlns="http://www.w3.org/2000/svg">
<path d="M15.8827 16.7813L17.6327 15.0313C17.8684 14.7985 18.1666 14.6392 18.4912 14.5726C18.8157 14.506 19.1525 14.5351 19.4608 14.6563L21.5937 15.5078C21.9052 15.6343 22.1724 15.8502 22.3615 16.1282C22.5505 16.4063 22.6531 16.7341 22.6562 17.0703V20.9766C22.6543 21.2053 22.6063 21.4313 22.5148 21.641C22.4233 21.8507 22.2904 22.0396 22.124 22.1966C21.9576 22.3535 21.7611 22.4751 21.5464 22.5541C21.3318 22.6331 21.1034 22.6679 20.8749 22.6563C5.92959 21.7266 2.91397 9.07034 2.34366 4.22659C2.31718 3.98873 2.34137 3.74796 2.41463 3.52012C2.48789 3.29228 2.60856 3.08253 2.76871 2.90467C2.92885 2.72681 3.12484 2.58488 3.34378 2.48821C3.56272 2.39153 3.79964 2.34231 4.03897 2.34378H7.81241C8.14913 2.34478 8.47786 2.44649 8.75631 2.63584C9.03476 2.82518 9.25019 3.0935 9.37491 3.40628L10.2265 5.53909C10.3517 5.84618 10.3836 6.18335 10.3183 6.50848C10.253 6.83361 10.0933 7.13229 9.85928 7.36722L8.10928 9.11722C8.10928 9.11722 9.11709 15.9375 15.8827 16.7813Z" fill="white"/>
</svg>
