<svg width="76" height="75" viewBox="0 0 76 75" fill="none" xmlns="http://www.w3.org/2000/svg">
<rect x="0.5" width="75" height="75" rx="15" fill="#164094"/>
<path d="M22.6277 53.6598V20.8138C22.6277 20.0886 23.215 19.5 23.9415 19.5H39.7076C40.4328 19.5 41.0214 20.0886 41.0214 20.8138V27.383H52.846C53.5712 27.383 54.1598 27.9716 54.1598 28.6969V53.6598H55.4737C56.1976 53.6598 56.7875 54.2484 56.7875 54.9737C56.7875 55.6989 56.1976 56.2875 55.4737 56.2875H21.3138C20.5886 56.2875 20 55.6989 20 54.9737C20 54.2484 20.5886 53.6598 21.3138 53.6598H22.6277ZM38.3938 53.6598V22.1277H25.2554V53.6598H27.8791V47.0906C27.8791 46.3654 28.4677 45.7768 29.1929 45.7768H34.4483C35.1735 45.7768 35.7621 46.3654 35.7621 47.0906V53.6598H38.3938ZM30.5068 48.4045V53.6598H33.1345V48.4045H30.5068ZM41.0214 30.0107V53.6598H51.5321V30.0107H41.0214ZM44.959 51.0321H47.5867C48.3119 51.0321 48.9005 50.4435 48.9005 49.7183C48.9005 48.9931 48.3119 48.4045 47.5867 48.4045H44.959C44.2338 48.4045 43.6452 48.9931 43.6452 49.7183C43.6452 50.4435 44.2338 51.0321 44.959 51.0321ZM44.959 45.7768H47.5867C48.3119 45.7768 48.9005 45.1882 48.9005 44.4629C48.9005 43.7377 48.3119 43.1491 47.5867 43.1491H44.959C44.2338 43.1491 43.6452 43.7377 43.6452 44.4629C43.6452 45.1882 44.2338 45.7768 44.959 45.7768ZM29.1929 43.1491H34.4483C35.1735 43.1491 35.7621 42.5605 35.7621 41.8353C35.7621 41.11 35.1735 40.5214 34.4483 40.5214H29.1929C28.4677 40.5214 27.8791 41.11 27.8791 41.8353C27.8791 42.5605 28.4677 43.1491 29.1929 43.1491ZM44.959 40.5214H47.5867C48.3119 40.5214 48.9005 39.9328 48.9005 39.2076C48.9005 38.4824 48.3119 37.8938 47.5867 37.8938H44.959C44.2338 37.8938 43.6452 38.4824 43.6452 39.2076C43.6452 39.9328 44.2338 40.5214 44.959 40.5214ZM29.1929 37.8938H34.4483C35.1735 37.8938 35.7621 37.3052 35.7621 36.5799C35.7621 35.8547 35.1735 35.2661 34.4483 35.2661H29.1929C28.4677 35.2661 27.8791 35.8547 27.8791 36.5799C27.8791 37.3052 28.4677 37.8938 29.1929 37.8938ZM44.959 35.2661H47.5867C48.3119 35.2661 48.9005 34.6775 48.9005 33.9522C48.9005 33.227 48.3119 32.6384 47.5867 32.6384H44.959C44.2338 32.6384 43.6452 33.227 43.6452 33.9522C43.6452 34.6775 44.2338 35.2661 44.959 35.2661ZM29.1929 32.6384H34.4483C35.1735 32.6384 35.7621 32.0498 35.7621 31.3246C35.7621 30.5993 35.1735 30.0107 34.4483 30.0107H29.1929C28.4677 30.0107 27.8791 30.5993 27.8791 31.3246C27.8791 32.0498 28.4677 32.6384 29.1929 32.6384ZM34.4483 24.7554C35.1735 24.7554 35.7621 25.344 35.7621 26.0692C35.7621 26.7944 35.1735 27.383 34.4483 27.383H29.1929H29.1469L29.1062 27.3804L29.0642 27.3765L29.0235 27.3725L28.9814 27.366L28.942 27.3594L28.8934 27.3489L28.8487 27.337L28.8027 27.3239L28.7567 27.3095L28.7186 27.295L28.6819 27.2792L28.6451 27.2635L28.6096 27.2464L28.5741 27.228L28.5386 27.2096L28.5045 27.1886L28.4716 27.1676L28.4388 27.1452L28.4073 27.1216L28.3757 27.0979L28.3389 27.0677L28.3035 27.0362L28.2693 27.0033L28.2365 26.9705L28.2023 26.9324L28.1721 26.8969L28.1432 26.8588L28.1156 26.8207L28.0933 26.7892L28.0722 26.755L28.0525 26.7208L28.0328 26.6867L28.0144 26.6512L27.9947 26.6079L27.975 26.5632L27.9579 26.5172L27.9435 26.4752L27.929 26.4292L27.9185 26.3898L27.9093 26.3503L27.9014 26.3096L27.8949 26.2689L27.8883 26.2282L27.8843 26.1874L27.8817 26.1454L27.8791 26.1033V26.0574L27.8804 26.0153L27.883 25.9746L27.8857 25.9339L27.8883 25.9102C27.9671 25.2599 28.5216 24.7554 29.1929 24.7554H34.4483Z" fill="white"/>
</svg>
