<svg width="65" height="65" viewBox="0 0 65 65" fill="none" xmlns="http://www.w3.org/2000/svg">
<rect width="65" height="65" rx="15" fill="#164094"/>
<path d="M27.3805 31.3016C28.6465 31.3016 29.8841 30.9262 30.9367 30.2228C31.9894 29.5194 32.8098 28.5197 33.2942 27.35C33.7786 26.1804 33.9053 24.8933 33.6583 23.6517C33.4112 22.41 32.8015 21.2695 31.9062 20.3744C31.0109 19.4792 29.8703 18.8697 28.6286 18.6229C27.3869 18.376 26.0999 18.5029 24.9303 18.9876C23.7607 19.4722 22.7611 20.2928 22.0579 21.3455C21.3547 22.3983 20.9795 23.6359 20.9797 24.9019C20.9815 26.5989 21.6565 28.2258 22.8565 29.4256C24.0566 30.6254 25.6836 31.3001 27.3805 31.3016ZM27.3805 20.7411C28.2035 20.7411 29.0079 20.9851 29.6922 21.4423C30.3764 21.8995 30.9097 22.5494 31.2246 23.3097C31.5395 24.0699 31.6219 24.9065 31.4614 25.7137C31.3008 26.5208 30.9046 27.2622 30.3227 27.8441C29.7408 28.426 28.9994 28.8222 28.1923 28.9828C27.3852 29.1433 26.5486 29.0609 25.7883 28.746C25.028 28.4311 24.3782 27.8978 23.921 27.2135C23.4638 26.5293 23.2197 25.7249 23.2197 24.9019C23.2206 23.7987 23.6593 22.7409 24.4394 21.9608C25.2195 21.1807 26.2773 20.742 27.3805 20.7411Z" fill="white"/>
<path d="M40.9001 31.8616C41.8416 31.8616 42.7619 31.5824 43.5447 31.0594C44.3274 30.5363 44.9375 29.7929 45.2978 28.9231C45.6581 28.0534 45.7523 27.0963 45.5687 26.1729C45.385 25.2496 44.9317 24.4014 44.266 23.7357C43.6003 23.07 42.7521 22.6167 41.8288 22.433C40.9054 22.2494 39.9483 22.3436 39.0786 22.7039C38.2088 23.0642 37.4654 23.6743 36.9423 24.457C36.4193 25.2398 36.1401 26.1601 36.1401 27.1016C36.1416 28.3635 36.6436 29.5734 37.5359 30.4657C38.4283 31.3581 39.6382 31.8601 40.9001 31.8616ZM40.9001 24.5816C41.3985 24.5816 41.8858 24.7294 42.3002 25.0063C42.7146 25.2832 43.0376 25.6767 43.2283 26.1372C43.419 26.5977 43.469 27.1044 43.3717 27.5932C43.2745 28.082 43.0345 28.531 42.682 28.8835C42.3296 29.2359 41.8806 29.4759 41.3918 29.5731C40.9029 29.6704 40.3962 29.6205 39.9358 29.4297C39.4753 29.239 39.0817 28.916 38.8048 28.5016C38.5279 28.0872 38.3801 27.6 38.3801 27.1016C38.3807 26.4334 38.6464 25.7928 39.1189 25.3203C39.5913 24.8478 40.232 24.5821 40.9001 24.5816Z" fill="white"/>
<path d="M40.9 33.172C39.7698 33.1754 38.652 33.4062 37.6129 33.8507C36.5739 34.2952 35.6349 34.9442 34.852 35.7592C33.1453 34.3407 31.07 33.4376 28.8688 33.1556C26.6677 32.8735 24.4317 33.2241 22.4226 34.1664C20.4134 35.1087 18.7141 36.6038 17.5236 38.4765C16.3331 40.3493 15.7005 42.5224 15.7 44.7416C15.7 45.0386 15.818 45.3235 16.028 45.5335C16.238 45.7436 16.5229 45.8616 16.82 45.8616H37.9432C38.2402 45.8616 38.5251 45.7436 38.7351 45.5335C38.9452 45.3235 39.0632 45.0386 39.0632 44.7416C39.0613 44.0542 38.9987 43.3683 38.8761 42.692H48.18C48.477 42.692 48.7619 42.574 48.9719 42.3639C49.182 42.1539 49.3 41.869 49.3 41.572C49.2976 39.3449 48.4118 37.2097 46.837 35.6349C45.2622 34.0601 43.127 33.1743 40.9 33.172ZM18.006 43.6216C18.2581 41.4745 19.2399 39.4791 20.7871 37.9692C22.3344 36.4593 24.3532 35.5266 26.5058 35.3271C28.6584 35.1276 30.8143 35.6734 32.6126 36.8731C34.411 38.0729 35.7428 39.8539 36.3852 41.918C36.5642 42.4724 36.6884 43.043 36.756 43.6216H18.006ZM38.2243 40.452C37.786 39.3339 37.1774 38.2904 36.42 37.3585C37.1985 36.5276 38.1923 35.929 39.2908 35.6294C40.3894 35.3298 41.5495 35.3409 42.6421 35.6616C43.7347 35.9822 44.7168 36.5998 45.4792 37.4456C46.2416 38.2913 46.7543 39.3321 46.9603 40.452H38.2243Z" fill="white"/>
</svg>
