<svg width="75" height="75" viewBox="0 0 75 75" fill="none" xmlns="http://www.w3.org/2000/svg">
<rect width="75" height="75" rx="15" fill="#164094"/>
<g clip-path="url(#clip0_1068_195)">
<path d="M32.796 60.0001C22.9833 60.0001 15 52.0183 15 42.2073C15 32.3964 22.9833 24.4146 32.796 24.4146C36.0391 24.4146 39.216 25.2994 41.9832 26.9733L40.4893 29.442C38.1727 28.0406 35.5124 27.2998 32.796 27.2998C24.5745 27.2998 17.8859 33.9873 17.8859 42.2073C17.8859 50.4273 24.5745 57.1148 32.796 57.1148C41.0174 57.1148 47.7061 50.4273 47.7061 42.2073C47.7061 39.4915 46.9653 36.8317 45.5637 34.5155L48.0328 33.022C49.707 35.7886 50.5919 38.9649 50.5919 42.2073C50.5919 52.0183 42.6087 60.0001 32.796 60.0001Z" fill="white"/>
<path d="M32.796 52.0888C27.3464 52.0888 22.9128 47.656 22.9128 42.2074C22.9128 36.7587 27.3464 32.3259 32.796 32.3259C33.8474 32.3259 34.8828 32.4904 35.8739 32.815L34.9758 35.557C34.2752 35.3276 33.5418 35.2112 32.796 35.2112C28.9377 35.2112 25.7987 38.3497 25.7987 42.2073C25.7987 46.0649 28.9377 49.2033 32.796 49.2033C36.6543 49.2033 39.7933 46.0649 39.7933 42.2073C39.7933 41.4295 39.6669 40.6661 39.4176 39.9386L42.1477 39.0035C42.5003 40.0328 42.6792 41.1106 42.6792 42.2073C42.6792 47.6559 38.2456 52.0888 32.796 52.0888Z" fill="white"/>
<path d="M58.7919 20.5404L55.035 19.9722L54.4666 16.2159C54.2933 15.0705 52.8412 14.5899 52.0197 15.4116L46.6161 20.8142C46.293 21.1373 46.1421 21.5942 46.2091 22.0461L46.8139 26.1202L33.5399 39.4196C33.3024 39.3562 33.0532 39.3219 32.796 39.3219C31.2048 39.3219 29.9102 40.6162 29.9102 42.2072C29.9102 43.7981 31.2048 45.0924 32.796 45.0924C34.3873 45.0924 35.6819 43.7981 35.6819 42.2072C35.6819 41.9479 35.647 41.6969 35.5826 41.4577L48.8518 28.1632L52.9529 28.7951C53.4026 28.8646 53.8711 28.7112 54.1929 28.3895L59.5965 22.9869C60.1393 22.563 60.3557 20.7356 58.7919 20.5404ZM52.6695 25.8322L49.6188 25.3621L49.1703 22.3408L52.0405 19.4712L52.3407 21.4552C52.4353 22.0805 52.9262 22.5713 53.5516 22.6658L55.536 22.966L52.6695 25.8322Z" fill="white"/>
</g>
<defs>
<clipPath id="clip0_1068_195">
<rect width="45" height="45" fill="white" transform="translate(15 15)"/>
</clipPath>
</defs>
</svg>
