<svg width="35" height="36" viewBox="0 0 35 36" fill="none" xmlns="http://www.w3.org/2000/svg">
<g clip-path="url(#clip0_204_552)">
<path d="M17.5 35.5C27.1673 35.5 35 27.6673 35 18C35 8.33271 27.1673 0.5 17.5 0.5C7.83271 0.5 0 8.33271 0 18C0 27.6673 7.83271 35.5 17.5 35.5ZM8.00771 17.6208L24.8806 11.1152C25.6638 10.8323 26.3477 11.3063 26.094 12.4904L26.0954 12.489L23.2225 26.0238C23.0096 26.9833 22.4394 27.2167 21.6417 26.7646L17.2667 23.5402L15.1565 25.5731C14.9231 25.8065 14.7263 26.0033 14.2742 26.0033L14.5848 21.551L22.6931 14.2258C23.046 13.9152 22.6144 13.7402 22.1492 14.0494L12.129 20.3581L7.80938 19.0106C6.87167 18.7131 6.85125 18.0729 8.00771 17.6208Z" fill="white"/>
</g>
<defs>
<clipPath id="clip0_204_552">
<rect width="35" height="35" fill="white" transform="translate(0 0.5)"/>
</clipPath>
</defs>
</svg>
