<svg width="71" height="71" viewBox="0 0 71 71" fill="none" xmlns="http://www.w3.org/2000/svg">
<rect width="71" height="71" rx="15" fill="#F9F9F9"/>
<g clip-path="url(#clip0_208_977)">
<path d="M35.526 18.7C33.9728 18.7 32.759 19.8919 31.7377 21.4443C30.7164 22.9967 29.8407 25.033 29.1021 27.1998C28.5494 28.8216 28.0763 30.5042 27.6999 32.1024C27.4843 31.5681 27.259 31.0548 27.0136 30.5999C26.685 29.991 26.3322 29.4642 25.9071 29.0513C25.4819 28.6383 24.9415 28.3157 24.3091 28.3157C23.7216 28.3157 23.2093 28.5967 22.8028 28.9644C22.3963 29.3322 22.0583 29.8022 21.744 30.3456C21.1154 31.4324 20.5879 32.8278 20.1422 34.2997C19.2508 37.2435 18.7 40.3938 18.7 41.938C18.7 44.7532 20.7966 47.0904 23.5063 47.483V50.7517H19.502C18.4569 50.7747 18.4569 52.3313 19.502 52.3543H51.5538C52.5989 52.3313 52.5989 50.7747 51.5538 50.7517H47.5456V47.483C50.2568 47.0918 52.3551 44.7543 52.3551 41.938C52.3551 40.3938 51.8043 37.2435 50.9129 34.2997C50.4672 32.8278 49.9396 31.4324 49.311 30.3456C48.9967 29.8022 48.6588 29.3322 48.2523 28.9644C47.8458 28.5967 47.3335 28.3157 46.7459 28.3157C46.1136 28.3157 45.5731 28.6383 45.148 29.0513C44.7228 29.4642 44.37 29.991 44.0415 30.5999C43.7962 31.0544 43.5706 31.5671 43.3552 32.1008C42.9788 30.5031 42.5054 28.821 41.9529 27.1998C41.2144 25.033 40.3363 22.9967 39.315 21.4443C38.2937 19.8919 37.0791 18.7 35.526 18.7ZM35.526 20.3034C36.1855 20.3034 37.0823 20.961 37.9784 22.3231C38.8745 23.6851 39.7248 25.6269 40.4363 27.7147C41.8595 31.8904 42.7401 36.7357 42.7401 38.732C42.7401 42.4529 39.9407 45.5014 36.328 45.8992V43.8748L38.4988 41.704C39.0218 41.1942 38.6459 40.3076 37.9158 40.3291C37.7079 40.3355 37.5106 40.4225 37.3657 40.5717L36.328 41.6078V39.0653L38.4988 36.8954C39.0233 36.3856 38.6468 35.4974 37.9158 35.5197C37.7079 35.5261 37.5106 35.6131 37.3657 35.7623L36.328 36.7999V33.9257C36.3347 33.4736 35.9663 33.1056 35.5142 33.1126C35.0717 33.1191 34.7182 33.4831 34.7246 33.9257V36.7976L33.6894 35.7623C33.5387 35.6074 33.3318 35.5199 33.1158 35.5197C32.3966 35.5199 32.0417 36.3938 32.557 36.8954L34.7246 39.0622V41.6054L33.6894 40.5717C33.5392 40.4157 33.3323 40.3271 33.1158 40.326C32.3938 40.324 32.0376 41.2027 32.557 41.704L34.7246 43.8717V45.8992C31.1121 45.5018 28.3157 42.4531 28.3157 38.732C28.3157 36.7357 29.1963 31.8904 30.6195 27.7147C31.3311 25.6269 32.1813 23.6851 33.0774 22.3231C33.9735 20.961 34.8664 20.3034 35.526 20.3034ZM24.3091 29.9183C24.391 29.9183 24.5465 29.9639 24.7904 30.2008C25.0343 30.4377 25.3236 30.842 25.6034 31.3605C26.1402 32.3552 26.6491 33.7596 27.0699 35.2239C26.8389 36.6177 26.7123 37.8357 26.7123 38.732C26.7123 40.4367 27.2014 42.0293 28.0434 43.3802C27.5582 44.6375 26.4608 45.5885 25.1097 45.8624V42.7393C25.1163 42.2876 24.7484 41.9197 24.2966 41.9263C23.8538 41.9323 23.4998 42.2965 23.5063 42.7393V45.864C21.6725 45.4947 20.3026 43.8849 20.3026 41.938C20.3026 40.8269 20.828 37.5666 21.6767 34.7638C22.1011 33.3623 22.6096 32.0507 23.1314 31.1485C23.3923 30.6974 23.6585 30.3517 23.878 30.1531C24.0974 29.9545 24.2329 29.9183 24.3091 29.9183ZM46.7459 29.9183C46.8222 29.9183 46.9576 29.9545 47.1771 30.1531C47.3965 30.3517 47.6627 30.6974 47.9236 31.1485C48.4454 32.0507 48.954 33.3623 49.3783 34.7638C50.227 37.5666 50.7525 40.8269 50.7525 41.938C50.7525 43.886 49.3809 45.4967 47.5456 45.8648V42.7393C47.5523 42.2876 47.1843 41.9197 46.7326 41.9263C46.2913 41.9345 45.9396 42.298 45.9461 42.7393V45.8624C44.5946 45.5887 43.4969 44.6377 43.0117 43.3802C43.8541 42.0293 44.3427 40.4367 44.3427 38.732C44.3427 37.8354 44.2171 36.6168 43.9859 35.2223C44.4067 33.7587 44.9151 32.3548 45.4516 31.3605C45.7314 30.842 46.0208 30.4377 46.2646 30.2008C46.5085 29.9639 46.6641 29.9183 46.7459 29.9183ZM41.9208 44.7896C42.7688 46.2215 44.2343 47.2435 45.9461 47.4893V50.7517H36.328V47.5097C38.5211 47.31 40.4856 46.3036 41.9208 44.7896ZM29.1334 44.7904C30.5681 46.3043 32.5317 47.3102 34.7246 47.5097V50.7517H25.1097V47.4885C26.8208 47.2425 28.2855 46.2216 29.1334 44.7904Z" fill="#164094"/>
</g>
<defs>
<clipPath id="clip0_208_977">
<rect width="35" height="35" fill="white" transform="translate(18 18)"/>
</clipPath>
</defs>
</svg>
