<svg width="35" height="36" viewBox="0 0 35 36" fill="none" xmlns="http://www.w3.org/2000/svg">
<g clip-path="url(#clip0_204_545)">
<path d="M25.7608 12.7381C25.6077 12.1415 25.1642 11.4614 24.6074 10.8787C23.9233 10.1628 23.0483 9.58013 22.2827 9.4091C19.1222 8.80439 15.8758 8.80439 12.7153 9.4091C11.3233 9.71933 9.57925 11.3977 9.23919 12.7381C8.67076 15.3249 8.67076 18.0044 9.23919 20.5912C9.51362 21.677 10.7048 22.9776 11.8841 23.602C12.1454 23.7458 12.4251 23.8535 12.7153 23.9222C12.7454 23.9273 12.7726 23.9429 12.7922 23.9662C12.8119 23.9895 12.8227 24.019 12.8227 24.0494V27.8676C12.8227 27.9098 12.8353 27.9511 12.8589 27.9861C12.8826 28.021 12.9162 28.0481 12.9554 28.0637C12.9946 28.0794 13.0376 28.0829 13.0788 28.0738C13.1201 28.0647 13.1576 28.0435 13.1866 28.0128L15.0023 26.1534L16.7045 24.4034C16.7166 24.3903 16.7314 24.3799 16.7479 24.373C16.7644 24.3662 16.7821 24.363 16.8 24.3636C18.6374 24.4131 20.4748 24.2651 22.2807 23.9222C23.6727 23.6119 25.4167 21.9335 25.7588 20.5912C26.3279 18.0045 26.3286 15.3251 25.7608 12.7381ZM22.3324 20.7841C22.0743 21.3739 21.63 21.8628 21.0676 22.1761C20.8916 22.2526 20.7084 22.3112 20.5207 22.3511C20.3079 22.2855 20.1051 22.2438 19.9241 22.1642C18.4196 21.5769 17.0196 20.751 15.7778 19.7182C15.4089 19.4016 15.0614 19.0608 14.7378 18.698C13.9407 17.7803 13.2718 16.7588 12.7491 15.6614C12.4946 15.1443 12.2798 14.6054 12.0611 14.0705C11.8622 13.5833 12.1565 13.0761 12.4588 12.7142C12.754 12.376 13.1181 12.1047 13.5267 11.9188C13.6701 11.8458 13.8347 11.8257 13.9915 11.8621C14.1482 11.8985 14.2871 11.989 14.3838 12.1176C14.888 12.6893 15.3324 13.311 15.7102 13.973C15.8296 14.1659 15.8703 14.3972 15.8241 14.6192C15.7778 14.8413 15.6481 15.0371 15.4616 15.1662C15.3622 15.2338 15.2628 15.3154 15.1773 15.3909C15.0929 15.4541 15.0202 15.5315 14.9625 15.6196C14.9123 15.7018 14.8819 15.7945 14.8736 15.8904C14.8653 15.9864 14.8794 16.0829 14.9148 16.1725C15.2986 17.2284 15.8812 18.1074 16.7523 18.7259C17.047 18.9349 17.3645 19.1097 17.6989 19.2469C17.9169 19.3658 18.1624 19.4255 18.4108 19.4199C18.8443 19.3682 18.9875 18.8909 19.2898 18.6423C19.4287 18.529 19.6005 18.4636 19.7797 18.4557C19.9588 18.4478 20.1357 18.4979 20.2841 18.5986C20.6062 18.7975 20.9165 19.0202 21.2267 19.2409C21.5335 19.4497 21.8289 19.6747 22.1116 19.9151C22.2437 20.0117 22.338 20.1513 22.3783 20.3099C22.4185 20.4685 22.4023 20.6362 22.3324 20.7841ZM19.4767 16.0114C19.4646 15.9787 19.4565 15.9446 19.4528 15.91C19.4425 15.7761 19.4226 15.6432 19.3932 15.5122C19.3346 15.2462 19.1839 15.0095 18.9676 14.844C18.8628 14.7699 18.7466 14.7135 18.6236 14.677C18.4665 14.6333 18.3014 14.6452 18.1463 14.6074C18.0696 14.5938 18.0015 14.5504 17.9567 14.4867C17.912 14.4229 17.8944 14.3441 17.9077 14.2673C17.922 14.1935 17.9629 14.1274 18.0226 14.0816C18.0824 14.0359 18.1567 14.0135 18.2318 14.0188C19.1426 14.0864 19.8227 14.5239 19.9977 15.5003C20.0159 15.5909 20.0285 15.6826 20.0355 15.7747C20.0485 15.8571 20.0485 15.941 20.0355 16.0233C20.0245 16.0738 19.9985 16.1199 19.9609 16.1554C19.9233 16.1908 19.8758 16.2141 19.8247 16.2222H19.781C19.7139 16.2264 19.6474 16.2079 19.5922 16.1697C19.537 16.1314 19.4963 16.0756 19.4767 16.0114ZM19.1864 13.5475C18.8798 13.4035 18.5544 13.3037 18.2199 13.2511C18.0727 13.2273 17.9256 13.2134 17.7784 13.1935C17.7399 13.1916 17.7022 13.1818 17.6677 13.1646C17.6332 13.1475 17.6025 13.1235 17.5777 13.094C17.5529 13.0645 17.5344 13.0302 17.5234 12.9933C17.5125 12.9563 17.5092 12.9175 17.5139 12.8793C17.5142 12.8405 17.5227 12.8022 17.5388 12.7668C17.5548 12.7315 17.5782 12.7 17.6073 12.6743C17.6363 12.6486 17.6705 12.6293 17.7075 12.6177C17.7445 12.6061 17.7836 12.6024 17.8221 12.6068C18.4061 12.6294 18.9781 12.7787 19.4986 13.0443C20.1338 13.3636 20.6522 13.8751 20.9801 14.506C21.1646 14.8755 21.2881 15.2724 21.346 15.6813C21.3569 15.7345 21.3648 15.7883 21.3699 15.8423C21.3798 15.9617 21.3838 16.079 21.3937 16.2281V16.2838C21.3923 16.3429 21.3843 16.4016 21.3699 16.4588C21.3523 16.5162 21.3174 16.5668 21.2701 16.6037C21.2227 16.6406 21.1652 16.662 21.1052 16.6651C21.0452 16.6681 20.9858 16.6526 20.935 16.6207C20.8841 16.5888 20.8443 16.542 20.821 16.4867C20.7989 16.4064 20.7888 16.3233 20.7912 16.2401C20.7956 15.7959 20.7076 15.3557 20.5327 14.9475C20.493 14.8576 20.4486 14.77 20.3994 14.685C20.1143 14.1959 19.6927 13.8006 19.1864 13.5475ZM22.4716 17.2145C22.2727 17.2145 22.1753 17.0455 22.1614 16.8605C22.1355 16.4966 22.1156 16.1307 22.0659 15.7688C21.9796 15.1576 21.767 14.571 21.4415 14.0466C21.1066 13.5012 20.661 13.0321 20.1335 12.6696C19.606 12.3072 19.0082 12.0595 18.379 11.9426C18.0926 11.8929 17.8003 11.881 17.5119 11.8492C17.329 11.8313 17.0883 11.8193 17.0486 11.5906C17.0433 11.5468 17.0472 11.5024 17.0603 11.4602C17.0733 11.418 17.095 11.379 17.1241 11.3458C17.1532 11.3126 17.1889 11.2859 17.229 11.2674C17.2691 11.249 17.3127 11.2392 17.3568 11.2386H17.5696C18.4271 11.2566 19.2673 11.4833 20.0175 11.8992C20.7677 12.315 21.4053 12.9073 21.875 13.625C22.2514 14.2102 22.507 14.8647 22.6267 15.55C22.7023 15.9815 22.7301 16.423 22.7639 16.8605C22.7704 16.9034 22.7677 16.9471 22.7562 16.9888C22.7446 17.0306 22.7244 17.0694 22.6968 17.1028C22.6692 17.1362 22.6349 17.1634 22.5961 17.1826C22.5573 17.2019 22.5149 17.2128 22.4716 17.2145Z" fill="white"/>
<path d="M17.5 0.5C14.0388 0.5 10.6554 1.52636 7.77753 3.44928C4.89967 5.37221 2.65665 8.10533 1.33212 11.303C0.00758254 14.5007 -0.338976 18.0194 0.336265 21.4141C1.01151 24.8087 2.67822 27.927 5.12564 30.3744C7.57306 32.8218 10.6913 34.4885 14.0859 35.1637C17.4806 35.839 20.9993 35.4924 24.197 34.1679C27.3947 32.8434 30.1278 30.6003 32.0507 27.7225C33.9737 24.8446 35 21.4612 35 18C35 13.3587 33.1563 8.90752 29.8744 5.62563C26.5925 2.34374 22.1413 0.5 17.5 0.5V0.5ZM27.6082 21.0088V21.0327C27.0992 23.0989 24.7963 25.3122 22.6824 25.7736H22.6585C20.9585 26.1008 19.2313 26.2666 17.5 26.2688C16.9949 26.2688 16.4858 26.2528 15.9807 26.223L13.646 28.6511C13.5177 28.783 13.353 28.8738 13.1729 28.9117C12.9928 28.9497 12.8055 28.9331 12.6349 28.8642C12.4642 28.7953 12.3179 28.6772 12.2147 28.5248C12.1114 28.3725 12.0559 28.1928 12.0551 28.0088V25.704C11.5067 25.541 10.9848 25.2992 10.506 24.9861C9.03836 24.0534 7.76563 22.5043 7.39972 21.0327V21.0088C6.76934 18.147 6.76934 15.1823 7.39972 12.3205V12.2946C7.90881 10.2304 10.2097 8.01705 12.3296 7.55568H12.3534C15.7575 6.90341 19.2545 6.90341 22.6585 7.55568H22.6824C23.8239 7.80426 25.019 8.56392 25.9577 9.54432C26.7531 10.3696 27.3736 11.354 27.6082 12.3026V12.3284C28.2375 15.1877 28.2375 18.1495 27.6082 21.0088Z" fill="white"/>
</g>
<defs>
<clipPath id="clip0_204_545">
<rect width="35" height="35" fill="white" transform="translate(0 0.5)"/>
</clipPath>
</defs>
</svg>
