<svg width="41" height="41" viewBox="0 0 41 41" fill="none" xmlns="http://www.w3.org/2000/svg">
<path d="M19.935 5.43931C20.1414 5.18104 20.397 4.96628 20.687 4.80745C20.9769 4.64862 21.2955 4.54889 21.6243 4.51401C21.953 4.47913 22.2855 4.50981 22.6023 4.60427C22.9191 4.69873 23.2141 4.85509 23.47 5.06431L31.625 11.7243C32.0735 12.0905 32.381 12.601 32.495 13.1686C32.609 13.7363 32.5224 14.3259 32.25 14.8368C31.5371 14.6189 30.7956 14.5085 30.05 14.5093H29.3L30.045 13.6593L25.75 10.1518L22.2075 14.5118H18.985L23.8125 8.57181L21.8875 6.99931L15.8925 14.5093H12.6925L19.935 5.43931ZM26.3 27.0093C25.9685 27.0093 25.6506 27.141 25.4162 27.3754C25.1817 27.6098 25.05 27.9278 25.05 28.2593C25.05 28.5908 25.1817 28.9088 25.4162 29.1432C25.6506 29.3776 25.9685 29.5093 26.3 29.5093H28.8C29.1316 29.5093 29.4495 29.3776 29.6839 29.1432C29.9184 28.9088 30.05 28.5908 30.05 28.2593C30.05 27.9278 29.9184 27.6098 29.6839 27.3754C29.4495 27.141 29.1316 27.0093 28.8 27.0093H26.3ZM7.55005 15.7593C7.55005 15.4278 7.68174 15.1098 7.91617 14.8754C8.15059 14.641 8.46853 14.5093 8.80005 14.5093H10.195L12.1825 12.0093H8.80005C7.80549 12.0093 6.85166 12.4044 6.1484 13.1077C5.44514 13.8109 5.05005 14.7647 5.05005 15.7593V30.7593C5.05005 32.4169 5.70853 34.0066 6.88063 35.1787C8.05273 36.3508 9.64245 37.0093 11.3 37.0093H30.05C31.3761 37.0093 32.6479 36.4825 33.5856 35.5448C34.5233 34.6072 35.05 33.3354 35.05 32.0093V22.0093C35.05 20.6832 34.5233 19.4115 33.5856 18.4738C32.6479 17.5361 31.3761 17.0093 30.05 17.0093H8.80005C8.46853 17.0093 8.15059 16.8776 7.91617 16.6432C7.68174 16.4088 7.55005 16.0908 7.55005 15.7593ZM7.55005 30.7593V19.2968C7.94005 19.4343 8.36255 19.5093 8.80005 19.5093H30.05C30.7131 19.5093 31.349 19.7727 31.8178 20.2415C32.2867 20.7104 32.55 21.3463 32.55 22.0093V32.0093C32.55 32.6723 32.2867 33.3082 31.8178 33.7771C31.349 34.2459 30.7131 34.5093 30.05 34.5093H11.3C10.3055 34.5093 9.35166 34.1142 8.6484 33.411C7.94514 32.7077 7.55005 31.7539 7.55005 30.7593Z" fill="white"/>
</svg>
