<svg width="30" height="31" viewBox="0 0 30 31" fill="none" xmlns="http://www.w3.org/2000/svg">
<path d="M14.7638 4.2045C14.9186 4.0108 15.1103 3.84972 15.3278 3.7306C15.5453 3.61148 15.7842 3.53668 16.0308 3.51052C16.2773 3.48437 16.5267 3.50738 16.7643 3.57822C17.0019 3.64906 17.2231 3.76633 17.4151 3.92325L23.5313 8.91825C23.8677 9.19288 24.0983 9.57575 24.1838 10.0015C24.2693 10.4272 24.2044 10.8694 24.0001 11.2526C23.4654 11.0892 22.9092 11.0064 22.3501 11.007H21.7876L22.3463 10.3695L19.1251 7.73887L16.4682 11.0089H14.0513L17.672 6.55387L16.2282 5.3745L11.732 11.007H9.33197L14.7638 4.2045ZM19.5376 20.382C19.289 20.382 19.0505 20.4808 18.8747 20.6566C18.6989 20.8324 18.6001 21.0709 18.6001 21.3195C18.6001 21.5681 18.6989 21.8066 18.8747 21.9824C19.0505 22.1582 19.289 22.257 19.5376 22.257H21.4126C21.6612 22.257 21.8997 22.1582 22.0755 21.9824C22.2513 21.8066 22.3501 21.5681 22.3501 21.3195C22.3501 21.0709 22.2513 20.8324 22.0755 20.6566C21.8997 20.4808 21.6612 20.382 21.4126 20.382H19.5376ZM5.4751 11.9445C5.4751 11.6959 5.57387 11.4574 5.74969 11.2816C5.9255 11.1058 6.16396 11.007 6.4126 11.007H7.45885L8.94947 9.132H6.4126C5.66668 9.132 4.95131 9.42831 4.42386 9.95576C3.89641 10.4832 3.6001 11.1986 3.6001 11.9445V23.1945C3.6001 24.4377 4.09396 25.63 4.97303 26.5091C5.85211 27.3881 7.0444 27.882 8.2876 27.882H22.3501C23.3447 27.882 24.2985 27.4869 25.0017 26.7836C25.705 26.0804 26.1001 25.1266 26.1001 24.132V16.632C26.1001 15.6374 25.705 14.6836 25.0017 13.9803C24.2985 13.2771 23.3447 12.882 22.3501 12.882H6.4126C6.16396 12.882 5.9255 12.7832 5.74969 12.6074C5.57387 12.4316 5.4751 12.1931 5.4751 11.9445ZM5.4751 23.1945V14.5976C5.7676 14.7007 6.08447 14.757 6.4126 14.757H22.3501C22.8474 14.757 23.3243 14.9545 23.6759 15.3062C24.0276 15.6578 24.2251 16.1347 24.2251 16.632V24.132C24.2251 24.6293 24.0276 25.1062 23.6759 25.4578C23.3243 25.8095 22.8474 26.007 22.3501 26.007H8.2876C7.54168 26.007 6.82631 25.7107 6.29886 25.1832C5.77141 24.6558 5.4751 23.9404 5.4751 23.1945Z" fill="white"/>
</svg>
