<svg width="26" height="25" viewBox="0 0 26 25" fill="none" xmlns="http://www.w3.org/2000/svg">
<path fill-rule="evenodd" clip-rule="evenodd" d="M18.6406 14.9813C18.3302 14.8261 16.8083 14.0782 16.525 13.974C16.2417 13.8709 16.0354 13.8198 15.8281 14.1302C15.6219 14.4386 15.0292 15.1365 14.849 15.3428C14.6677 15.55 14.4875 15.575 14.1781 15.4209C13.8687 15.2646 12.8708 14.9386 11.6885 13.8844C10.7688 13.0636 10.1469 12.05 9.96667 11.7396C9.78646 11.4303 9.94687 11.2625 10.1021 11.1084C10.2417 10.9698 10.4115 10.7469 10.5667 10.5667C10.7219 10.3855 10.7729 10.2563 10.876 10.049C10.9802 9.84275 10.9281 9.66254 10.85 9.50733C10.7729 9.35213 10.1542 7.82817 9.89583 7.20838C9.64479 6.60525 9.38958 6.68754 9.2 6.67713C9.01875 6.66879 8.8125 6.66671 8.60625 6.66671C8.4 6.66671 8.06458 6.74379 7.78125 7.05421C7.49687 7.36358 6.69792 8.11254 6.69792 9.6365C6.69792 11.1594 7.80625 12.6313 7.96146 12.8386C8.11667 13.0448 10.1438 16.1719 13.249 17.5125C13.9885 17.8313 14.5646 18.0219 15.0135 18.1636C15.7552 18.4 16.4302 18.3667 16.9635 18.2865C17.5573 18.198 18.7948 17.5375 19.0531 16.8146C19.3104 16.0917 19.3104 15.4719 19.2333 15.3428C19.1562 15.2136 18.95 15.1365 18.6396 14.9813H18.6406ZM12.9927 22.6927H12.9885C11.1442 22.6931 9.33372 22.1973 7.74687 21.2573L7.37187 21.0344L3.47396 22.0573L4.51458 18.2573L4.26979 17.8678C3.23869 16.2264 2.69302 14.3269 2.69583 12.3886C2.69792 6.7115 7.31667 2.09275 12.9969 2.09275C15.7469 2.09275 18.3323 3.16567 20.276 5.1115C21.2348 6.06627 21.9947 7.20167 22.5117 8.45202C23.0288 9.70236 23.2929 11.0428 23.2885 12.3959C23.2865 18.073 18.6677 22.6927 12.9927 22.6927ZM21.7552 3.63338C20.6075 2.47809 19.2419 1.56206 17.7376 0.938376C16.2333 0.314692 14.6201 -0.00424609 12.9917 4.26849e-05C6.16458 4.26849e-05 0.60625 5.55733 0.604167 12.3875C0.601003 14.5612 1.17122 16.6973 2.25729 18.5802L0.5 25L7.06667 23.2771C8.8832 24.2668 10.9188 24.7854 12.9875 24.7855H12.9927C19.8198 24.7855 25.3781 19.2282 25.3802 12.3969C25.3852 10.7691 25.0675 9.1564 24.4452 7.65216C23.823 6.14792 22.9087 4.78199 21.7552 3.63338Z" fill="#164094"/>
</svg>
