<svg width="35" height="36" viewBox="0 0 35 36" fill="none" xmlns="http://www.w3.org/2000/svg">
<g clip-path="url(#clip0_204_555)">
<path d="M17.5 0.5C7.83649 0.5 0 8.33649 0 18C0 27.6635 7.83649 35.5 17.5 35.5C27.1635 35.5 35 27.6635 35 18C35 8.33649 27.1635 0.5 17.5 0.5ZM17.8709 28.189C17.8706 28.189 17.8712 28.189 17.8709 28.189H17.8666C16.1136 28.1882 14.391 27.7487 12.8612 26.9145L7.30885 28.3706L8.79486 22.9446C7.87815 21.3568 7.3959 19.5554 7.3967 17.71C7.3991 11.9368 12.0977 7.24007 17.8709 7.24007C20.6726 7.24114 23.3025 8.33169 25.2799 10.3106C27.2575 12.2899 28.3459 14.9206 28.3448 17.7183C28.3424 23.4917 23.6433 28.189 17.8709 28.189Z" fill="white"/>
<path d="M17.8743 9.00861C13.0724 9.00861 9.16705 12.9123 9.16492 17.7108C9.16438 19.3552 9.62474 20.9565 10.4961 22.3422L10.703 22.6714L9.82341 25.883L13.1183 25.0189L13.4363 25.2074C14.7728 26.0005 16.305 26.42 17.8671 26.4205H17.8706C22.6688 26.4205 26.5741 22.5165 26.5763 17.7178C26.5771 15.3922 25.6724 13.2058 24.0288 11.5609C22.3852 9.91597 20.1993 9.00941 17.8743 9.00861ZM22.9949 21.4524C22.7767 22.0634 21.7313 22.6212 21.2285 22.6965C20.7775 22.7638 20.2071 22.7918 19.5801 22.5929C19.1999 22.4722 18.7125 22.3112 18.088 22.0417C15.4628 20.9085 13.7482 18.266 13.6174 18.0913C13.4865 17.9167 12.5487 16.6726 12.5487 15.3847C12.5487 14.0971 13.2248 13.464 13.4646 13.2023C13.7047 12.9403 13.9883 12.8749 14.1626 12.8749C14.337 12.8749 14.5116 12.8765 14.6641 12.884C14.8249 12.892 15.0406 12.8228 15.2529 13.3331C15.4711 13.857 15.9944 15.1447 16.0599 15.2755C16.1253 15.4066 16.1688 15.5594 16.0818 15.734C15.9944 15.9086 15.7045 16.2854 15.4275 16.6288C15.3114 16.7727 15.16 16.9009 15.3127 17.1629C15.4652 17.4246 15.9907 18.2814 16.7686 18.9752C17.7683 19.8665 18.6116 20.1426 18.8733 20.2738C19.1347 20.4046 19.2874 20.3827 19.4402 20.2083C19.5927 20.0337 20.0944 19.4444 20.2688 19.1824C20.4431 18.9204 20.6178 18.9642 20.8576 19.0516C21.0976 19.1386 22.3842 19.7717 22.6459 19.9026C22.9076 20.0337 23.0819 20.0991 23.1473 20.2083C23.213 20.3175 23.213 20.8412 22.9949 21.4524Z" fill="white"/>
</g>
<defs>
<clipPath id="clip0_204_555">
<rect width="35" height="35" fill="white" transform="translate(0 0.5)"/>
</clipPath>
</defs>
</svg>
